<svg xmlns="http://www.w3.org/2000/svg" viewBox="0 0 527.24 345.29"><defs><style>.cls-1{stroke:#ef6719;fill:#ef6719;stroke-miterlimit:10;stroke-width:3px;}</style></defs><title>Ресурс 1</title><g id="Слой_2" data-name="Слой 2"><g id="Layer_1" data-name="Layer 1"><path class="cls-1" d="M256.56,1.5,102,2.43a12.67,12.67,0,0,0-4.65.93,8.25,8.25,0,0,0-3,1.86,6.74,6.74,0,0,0-1.86,4.46V68.84a12.59,12.59,0,0,0,.37,1.86v4.65H10.27c-.13-.11-.21-.22-.37-.37s-.33-.17-.56-.37A3.44,3.44,0,0,0,8,73.68a4.15,4.15,0,0,0-1.12-.37,4.86,4.86,0,0,0-1.12-.19,5.74,5.74,0,0,0-1.3.37L3,74.24a13.64,13.64,0,0,0-.93,1.3,4.37,4.37,0,0,0-.56,1.86,3,3,0,0,0,.37,2.23c27.91,79.12,63,185.81,89.48,256.16a4.47,4.47,0,0,0,2,2.42,8.6,8.6,0,0,0,1.3,2.79,7,7,0,0,0,5.58,2.79h418a7.36,7.36,0,0,0,5.77-2.79,9,9,0,0,0,1.67-5.58v-280c0-4.06-2.86-8.19-7.44-8.19H286.89L264.38,7.46c-.26-.46-.54-1.32-1.3-2.6a8.06,8.06,0,0,0-2-2.23c-.29-.22-.75-.2-1.12-.37l-.37-.19a4.47,4.47,0,0,0-2-.56h-.93Zm-.74,8.93c.2.44.34.59.74,1.3L280.37,54a4.46,4.46,0,0,0,3.91,2.23H516.81V334.86h-415V70.7a4.46,4.46,0,0,0-.37-1.86V11.55c.28,0,.61-.19.74-.19l153.66-.93ZM12.87,84.28h80V313.84c-24.55-67-54.87-158-80-229.56Z"/></g></g></svg>