<?xml version="1.0" encoding="utf-8"?>
<!-- Generator: Adobe Illustrator 21.1.0, SVG Export Plug-In . SVG Version: 6.00 Build 0)  -->
<svg version="1.1" id="Слой_1" xmlns="http://www.w3.org/2000/svg" xmlns:xlink="http://www.w3.org/1999/xlink" x="0px" y="0px"
	 viewBox="0 0 476.2 476.2" style="enable-background:new 0 0 476.2 476.2;" xml:space="preserve">
<style type="text/css">
	.st0{fill:#EF6719;}
</style>
<title>Ресурс 1</title>
<g id="Слой_2">
	<g id="Layer_1">
		<path class="st0" d="M470.1,422.6h-16.6V289.1h16.6c3.3,0.4,6.3-1.9,6.7-5.2c0.4-3.3-1.9-6.3-5.2-6.7c-0.5-0.1-1-0.1-1.5,0h-16.6
			V140.4h16.6c3.3,0.4,6.3-1.9,6.7-5.2c0.4-3.3-1.9-6.3-5.2-6.7c-0.5-0.1-1-0.1-1.5,0H320.3l-78-125.7c-1.1-1.7-3-2.8-5-2.8H27
			c-3.3,0-6,2.7-6,6v122.5H6c-3.3-0.4-6.3,1.9-6.7,5.2c-0.4,3.3,1.9,6.3,5.2,6.7c0.5,0.1,1,0.1,1.5,0h15.1v136.8H6
			c-3.3-0.4-6.3,1.9-6.7,5.2c-0.4,3.3,1.9,6.3,5.2,6.7c0.5,0.1,1,0.1,1.5,0h15.1v133.6H6c-3.3,0-6,2.7-6,6v41.7c0,3.3,2.7,6,6,6l0,0
			h464.3c1.6,0,3.1-0.6,4.2-1.8c1.1-1.1,1.7-2.6,1.7-4.2l-0.2-41.7C476.1,425.4,473.4,422.7,470.1,422.6z M33,11.9h200.9l72.3,116.6
			h-83.9V62.2c0-18.1-14.7-32.8-32.7-32.8s-32.8,14.7-32.8,32.7c0,0,0,0,0,0v66.3h-31V62.2c0-18.1-14.7-32.8-32.8-32.8
			c-18.1,0-32.8,14.7-32.8,32.8c0,0,0,0,0,0v66.3H33V11.9z M210.4,128.5h-41.7V62.2c-0.3-11.5,8.9-21.1,20.4-21.3
			s21.1,8.9,21.3,20.4c0,0.3,0,0.6,0,0.9V128.5z M113.9,128.5H72.2V62.2c-0.3-11.5,8.9-21.1,20.4-21.3s21.1,8.9,21.3,20.4
			c0,0.3,0,0.6,0,0.9L113.9,128.5z M33,140.4h408.6v136.8h-26.1v-82.5c0-18.1-14.7-32.8-32.7-32.8c-18.1,0-32.8,14.7-32.8,32.7
			c0,0,0,0,0,0v82.5h-31v-82.5c0-18.1-14.7-32.8-32.7-32.8c-18.1,0-32.8,14.7-32.8,32.7c0,0,0,0,0,0v82.5h-31v-82.5
			c0-18.1-14.7-32.8-32.7-32.8c-18.1,0-32.8,14.7-32.8,32.7c0,0,0,0,0,0v82.5h-31v-82.5c0-18.1-14.7-32.8-32.8-32.8
			s-32.8,14.7-32.8,32.8c0,0,0,0,0,0v82.5H33V140.4z M361.9,277.2v-82.5c-0.3-11.5,8.9-21.1,20.4-21.3c11.5-0.3,21.1,8.9,21.3,20.4
			c0,0.3,0,0.6,0,0.9v82.5H361.9z M265.3,277.2v-82.5c-0.3-11.5,8.9-21.1,20.4-21.3c11.5-0.3,21.1,8.9,21.3,20.4c0,0.3,0,0.6,0,0.9
			v82.5H265.3z M168.7,277.2v-82.5c-0.3-11.5,8.9-21.1,20.4-21.3c11.5-0.3,21.1,8.9,21.3,20.4c0,0.3,0,0.6,0,0.9v82.5H168.7z
			 M72.1,277.2v-82.5c-0.3-11.5,8.9-21.1,20.4-21.3c11.5-0.3,21.1,8.9,21.3,20.4c0,0.3,0,0.6,0,0.9v82.5H72.1z M33,289.1h408.6
			v133.6h-26.1v-84.4c0-18.1-14.7-32.8-32.8-32.7c-18.1,0-32.7,14.7-32.7,32.7v84.4h-31v-84.4c0-18.1-14.7-32.8-32.8-32.7
			c-18.1,0-32.7,14.7-32.7,32.7v84.4h-31v-84.4c0-18.1-14.7-32.8-32.8-32.7c-18.1,0-32.7,14.7-32.7,32.7v84.4h-31v-84.4
			c0-18.1-14.7-32.8-32.8-32.8c-18.1,0-32.8,14.7-32.8,32.8v84.4H33V289.1z M403.6,422.6h-41.7v-84.4c0.3-11.5,9.8-20.7,21.3-20.4
			c11.2,0.2,20.2,9.2,20.4,20.4L403.6,422.6L403.6,422.6z M307,422.6h-41.7v-84.4c0.3-11.5,9.8-20.7,21.3-20.4
			c11.2,0.2,20.2,9.2,20.4,20.4V422.6z M210.4,422.6h-41.7v-84.4c0.3-11.5,9.8-20.7,21.3-20.4c11.2,0.2,20.2,9.2,20.4,20.4
			L210.4,422.6z M113.9,422.6H72.2v-84.4c0.3-11.5,9.8-20.7,21.3-20.4c11.2,0.2,20.2,9.2,20.4,20.4L113.9,422.6z M11.9,464.3v-29.8
			h452.3l0.1,29.8L11.9,464.3z"/>
	</g>
</g>
</svg>
