<?xml version="1.0" encoding="utf-8"?>
<!-- Generator: Adobe Illustrator 21.1.0, SVG Export Plug-In . SVG Version: 6.00 Build 0)  -->
<svg version="1.1" id="Слой_1" xmlns="http://www.w3.org/2000/svg" xmlns:xlink="http://www.w3.org/1999/xlink" x="0px" y="0px"
	 viewBox="0 0 347.4 428.6" style="enable-background:new 0 0 347.4 428.6;" xml:space="preserve">
<style type="text/css">
	.st0{fill:none;stroke:#F7B893;}
	.st1{fill:#EF6719;}
</style>
<title>Ресурс 1</title>
<g id="Слой_2">
	<g id="Layer_1">
		<path class="st0" d="M218.1,57.5h-88.8c-11.2,0-20.3,9.1-20.3,20.3c0,0.7,0,1.3,0.1,2l3.5,31.5c39.4-15,82.9-15,122.2,0l3.5-31.8
			c0.9-11.2-7.4-21-18.6-21.9C219.2,57.5,218.6,57.5,218.1,57.5L218.1,57.5z"/>
		<path class="st1" d="M289,144.1l6.5-58.6c3.6-37.2-19.6-71.7-55.4-82.4c-7.5-2.2-15.3-3.2-23.2-3.1h-85.4c-11.7,0-23.4,1.9-34,6.7
			C66.9,20.5,48.4,52.4,51.9,85.8l6.5,58.3C-13.2,207.6-19.8,317,43.6,388.6c5.4,6.1,11.2,11.8,17.4,17.1
			c17.4,14.8,39.6,22.9,62.4,22.9h101c20.6,0,41.1-6.1,57.3-18.9c75-59.4,87.7-168.4,28.3-243.4C303.7,158.3,296.6,150.9,289,144.1z
			 M238.4,79.5l-3.5,31.8c-39.4-15-82.9-15-122.2,0l-3.5-31.5c-1.1-11.2,7-21.1,18.2-22.2c0.7-0.1,1.3-0.1,2-0.1h88.8
			c5.7,0,11.2,2.4,15.1,6.7C237,68.3,238.9,73.9,238.4,79.5z"/>
	</g>
</g>
</svg>
