<svg xmlns="http://www.w3.org/2000/svg" viewBox="0 0 184.66 160.47"><defs><style>.cls-1{fill:#fff;stroke:#fff;stroke-miterlimit:10;stroke-width:3px;}</style></defs><title>Ресурс 1</title><g id="Слой_2" data-name="Слой 2"><g id="Слой_1-2" data-name="Слой 1"><path class="cls-1" d="M149.94,122.68a18.14,18.14,0,1,0,18.14,18.14A18.14,18.14,0,0,0,149.94,122.68Zm0,31.57a13.61,13.61,0,1,1,13.61-13.61A13.61,13.61,0,0,1,149.94,154.25Z"/><path class="cls-1" d="M39.05,10.21A11.34,11.34,0,0,0,28,1.5H3.77A2.27,2.27,0,1,0,3.77,6H28a6.8,6.8,0,0,1,6.62,5.22L53,88.06A20.41,20.41,0,0,0,72.89,103.7h77.37a20.41,20.41,0,0,0,19.82-15.51l13-53.2a2.27,2.27,0,0,0-2.27-2.81H44.31ZM178.11,36.72,165.68,87.1a15.87,15.87,0,0,1-15.42,12.06H72.89A15.87,15.87,0,0,1,57.44,86.95l-12-50.23Z"/><path class="cls-1" d="M49.69,140.74a18.14,18.14,0,1,0,18.14-18.14h0A18.14,18.14,0,0,0,49.69,140.74Zm31.57,0a13.61,13.61,0,1,1-13.61-13.61A13.61,13.61,0,0,1,81.25,140.74Z"/></g></g></svg>