<svg xmlns="http://www.w3.org/2000/svg" viewBox="0 0 176.88 176.88"><defs><style>.cls-1{fill:#fff;}</style></defs><title>Ресурс 1</title><g id="Слой_2" data-name="Слой 2"><g id="Слой_1-2" data-name="Слой 1"><path class="cls-1" d="M88.44,0a43.09,43.09,0,1,0,43.09,43.09A43.15,43.15,0,0,0,88.44,0Zm0,9.07a34,34,0,1,1-34,34A33.95,33.95,0,0,1,88.44,9.07Zm0,90.71C40.11,99.78,0,131.75,0,172.34a4.54,4.54,0,0,0,4.54,4.54H172.34a4.54,4.54,0,0,0,4.54-4.54C176.88,131.75,136.77,99.78,88.44,99.78Zm0,9.07c42.37,0,75.86,26.48,78.8,59H9.64C12.58,135.33,46.07,108.85,88.44,108.85Z"/></g></g></svg>