<svg xmlns="http://www.w3.org/2000/svg" viewBox="0 0 72.75 109.13"><defs><style>.cls-1{fill:#fff;}</style></defs><title>Ресурс 1</title><g id="Слой_2" data-name="Слой 2"><g id="Layer_1" data-name="Layer 1"><path class="cls-1" d="M36.38,0A36.41,36.41,0,0,0,0,36.36V72.77a36.38,36.38,0,0,0,72.75,0V36.36A36.41,36.41,0,0,0,36.38,0ZM68.71,72.77A32.34,32.34,0,0,1,4,72.77V36.36a32.34,32.34,0,0,1,64.67,0Z"/><path class="cls-1" d="M36.38,12.13a2,2,0,0,0-2,2v18.3a2,2,0,1,0,4,0V14.15A2,2,0,0,0,36.38,12.13Z"/></g></g></svg>