<svg xmlns="http://www.w3.org/2000/svg" viewBox="0 0 294.49 293.83"><defs><style>.cls-1{fill:#fff;}</style></defs><title>Ресурс 1</title><g id="Слой_2" data-name="Слой 2"><g id="Слой_1-2" data-name="Слой 1"><path class="cls-1" d="M291.69,278.11,218.35,204.3c41.91-48.57,39.53-121.91-6.67-168.11A123.92,123.92,0,0,0,36.43,211.44a123.59,123.59,0,0,0,168.11,6.19L277.88,291a9.21,9.21,0,0,0,13.33,0C295.5,287.64,295.5,281.92,291.69,278.11Zm-241.45-80c-20-20-30.48-46.19-30.48-74.29A105.65,105.65,0,0,1,50.24,49.53c20-20,46.19-30.48,74.29-30.48a105.65,105.65,0,0,1,74.29,30.48c20,20,30.48,46.19,30.48,74.29a105.65,105.65,0,0,1-30.48,74.29c-20,20-46.19,30.48-74.29,30.48A104,104,0,0,1,50.24,198.11Z"/></g></g></svg>