<svg xmlns="http://www.w3.org/2000/svg" viewBox="0 0 294.36 293.96"><title>Ресурс 1</title><g id="Слой_2" data-name="Слой 2"><g id="Слой_1-2" data-name="Слой 1"><g id="Слой_2-2" data-name="Слой 2"><g id="Слой_1-2-2" data-name="Слой 1-2"><path d="M291.56,278.22l-73.34-73.81c41.91-48.57,39.53-121.91-6.67-168.11a123.92,123.92,0,1,0-7.14,181.44l73.34,73.37a9.21,9.21,0,0,0,13,.31l.31-.31C295.37,287.75,295.37,282,291.56,278.22Zm-241.45-80c-20-20-30.48-46.19-30.48-74.29A105.65,105.65,0,0,1,50.11,49.64c20-20,46.19-30.48,74.29-30.48a105.65,105.65,0,0,1,74.29,30.48c20,20,30.48,46.19,30.48,74.29a105.65,105.65,0,0,1-30.48,74.29c-20,20-46.19,30.48-74.29,30.48a104,104,0,0,1-74.29-30.48Z"/></g></g></g></g></svg>