<?xml version="1.0" standalone="no"?>
<!DOCTYPE svg PUBLIC "-//W3C//DTD SVG 1.1//EN" "http://www.w3.org/Graphics/SVG/1.1/DTD/svg11.dtd" >
<svg xmlns="http://www.w3.org/2000/svg" xmlns:xlink="http://www.w3.org/1999/xlink" version="1.1">
<metadata>
Created by FontForge 20170731 at Fri Dec 22 23:03:31 2006
 By Aleksey,,,
1991 Erik Spiekermann, published by Fontshop International for the FontFont library.
</metadata>
<defs>
<font id="MetaBoldLF-Roman" horiz-adv-x="560" >
  <font-face 
    font-family="Meta Lf"
    font-weight="500"
    font-stretch="normal"
    units-per-em="1000"
    panose-1="0 0 0 0 0 0 0 0 0 0"
    ascent="800"
    descent="-200"
    x-height="512"
    cap-height="695"
    bbox="-190 -224 1180 942"
    underline-thickness="20"
    underline-position="-182"
    unicode-range="U+0020-FB02"
  />
<missing-glyph horiz-adv-x="225" 
 />
    <glyph glyph-name=".notdef" horiz-adv-x="225" 
 />
    <glyph glyph-name=".null" horiz-adv-x="0" 
 />
    <glyph glyph-name="nonmarkingreturn" horiz-adv-x="333" 
 />
    <glyph glyph-name="space" unicode=" " horiz-adv-x="225" 
 />
    <glyph glyph-name="exclam" unicode="!" horiz-adv-x="295" 
d="M226 710l-28 -489h-102l-30 466zM230 70q0 -34 -24.5 -58.5t-59.5 -24.5q-34 0 -57.5 24t-23.5 59q0 34 24.5 58.5t58.5 24.5t58 -24.5t24 -58.5z" />
    <glyph glyph-name="quotedbl" unicode="&#x22;" horiz-adv-x="488" 
d="M423 426h-126v282h126v-282zM191 426h-126v282h126v-282z" />
    <glyph glyph-name="numbersign" unicode="#" horiz-adv-x="562" 
d="M532 417h-96l-17 -126h84v-90h-96l-28 -201h-97l28 201h-99l-28 -201h-97l28 201h-84v90h96l17 126h-84v90h96l28 201h97l-28 -201h99l28 201h97l-28 -201h84v-90zM339 417h-99l-17 -126h99z" />
    <glyph glyph-name="dollar" unicode="$" horiz-adv-x="584" 
d="M554 219q0 -96 -66 -158.5t-177 -73.5v-81h-86v81q-104 9 -195 61l52 109q107 -56 191 -56q122 0 122 95q0 65 -91 90l-77 21q-101 28 -137 88q-29 47 -29 106q0 86 57 144t152 69v72h86v-73q108 -11 186 -67l-66 -100q-88 53 -162 53q-43 0 -70 -22.5t-27 -57.5
q0 -27 17 -42.5t60 -27.5l84 -23q85 -23 130.5 -76.5t45.5 -130.5z" />
    <glyph glyph-name="percent" unicode="%" horiz-adv-x="840" 
d="M810 164q0 -82 -47 -128q-48 -46 -125 -46t-123 46.5t-46 125.5q0 78 46.5 126t122.5 48q81 0 128 -50q44 -44 44 -122zM371 533q0 -82 -47 -128q-48 -46 -125 -46t-123 46.5t-46 125.5q0 78 46.5 126t122.5 48q81 0 128 -50q44 -44 44 -122zM650 695l-364 -695h-95
l364 695h95zM260 535q0 61 -20 80q-16 16 -42 16q-37 0 -50 -30q-9 -22 -9 -67q0 -56 11 -75q16 -25 50 -25q32 0 46 24t14 77zM699 166q0 61 -20 80q-16 16 -42 16q-37 0 -50 -30q-9 -22 -9 -67q0 -56 11 -75q16 -25 50 -25q32 0 46 24t14 77z" />
    <glyph glyph-name="ampersand" unicode="&#x26;" horiz-adv-x="705" 
d="M710 0h-186l-42 42q-26 -22 -60 -36q-51 -20 -131 -20q-120 0 -185.5 49.5t-65.5 139.5q0 115 125 173q-50 39 -65 71q-16 34 -16 79q0 74 56 121t144 47q89 0 146 -44t57 -114q0 -57 -34 -96q-24 -26 -88 -62l-9 -5l116 -110q9 35 9 98v7h112v-6q0 -113 -32 -186z
M400 118l-163 157q-54 -33 -54 -92q0 -47 29.5 -73t82.5 -26q72 0 105 34zM347 506q0 29 -17.5 48t-44.5 19q-29 0 -46.5 -18t-17.5 -47q0 -22 10 -38.5t42 -49.5l8 -8q66 34 66 94z" />
    <glyph glyph-name="quotesingle" unicode="'" horiz-adv-x="256" 
d="M191 426h-126v282h126v-282z" />
    <glyph glyph-name="parenleft" unicode="(" horiz-adv-x="312" 
d="M332 -91l-35 -78q-73 25 -128 78.5t-86 128.5q-31 77 -40 206q-3 44 -3 78q0 107 20 190q22 93 90 167q62 66 145 102l35 -79q-35 -25 -54 -44q-53 -53 -75 -121q-19 -54 -23 -131q-2 -29 -2 -82q0 -71 8 -154q11 -101 47 -164q19 -34 41 -55t60 -42z" />
    <glyph glyph-name="parenright" unicode=")" horiz-adv-x="310" 
d="M270 293q0 -118 -19 -193q-23 -92 -91 -166q-61 -67 -146 -102l-34 79q30 22 54 44q53 53 76 121q16 49 22 131q3 45 3 84q0 84 -8 152q-12 104 -46 164q-20 34 -41.5 55t-59.5 42l35 78q74 -26 129 -79t85 -129q30 -78 39 -206q2 -28 2 -75z" />
    <glyph glyph-name="asterisk" unicode="*" horiz-adv-x="476" 
d="M451 518l-131 -42l83 -114l-83 -61l-84 115l-81 -110l-81 61l84 109l-133 46l32 95l131 -47v138h102v-138l131 43z" />
    <glyph glyph-name="plus" unicode="+" horiz-adv-x="628" 
d="M588 240h-211v-211h-126v211h-211v126h211v211h126v-211h211v-126z" />
    <glyph glyph-name="comma" unicode="," horiz-adv-x="284" 
d="M234 36q0 -65 -39 -115t-102 -66l-53 56q33 7 52.5 23t19.5 34q0 16 -26 32q-39 23 -39 70q0 36 25.5 61t61.5 25q44 0 72 -34t28 -86z" />
    <glyph glyph-name="hyphen" unicode="-" horiz-adv-x="320" 
d="M280 216h-240v116h240v-116z" />
    <glyph glyph-name="period" unicode="." horiz-adv-x="276" 
d="M226 73q0 -37 -26 -63t-62 -26q-37 0 -62.5 26t-25.5 63q0 36 25.5 61.5t61.5 25.5q37 0 63 -25.5t26 -61.5z" />
    <glyph glyph-name="slash" unicode="/" horiz-adv-x="436" 
d="M396 764l-268 -918h-88l268 918h88z" />
    <glyph glyph-name="zero" unicode="0" 
d="M517 333q0 -157 -66 -252t-172 -95q-109 0 -173 93.5t-64 250.5t66 252t172 95q109 0 173 -93.5t64 -250.5zM368 329q0 142 -22.5 196t-65.5 54q-89 0 -89 -244q0 -97 12 -154.5t30 -77t46 -19.5q89 0 89 245z" />
    <glyph glyph-name="one" unicode="1" 
d="M450 0h-335v109h117v404q-63 -39 -133 -63l-34 72l207 145h91v-558h87v-109z" />
    <glyph glyph-name="two" unicode="2" 
d="M512 112l-29 -112h-429v94q102 100 167 170q109 120 109 205q0 90 -83 90q-61 0 -141 -66l-72 85q111 99 252 99q89 0 142 -53t53 -138q0 -98 -117 -227q-48 -53 -119 -119q-21 -21 -38 -33q37 5 105 5h200z" />
    <glyph glyph-name="three" unicode="3" 
d="M507 204q0 -103 -98.5 -168.5t-253.5 -65.5q-45 0 -83 5l-32 93q36 -7 76 -7q104 0 169 43t65 111q0 25 -12 46t-32 30q-25 12 -93 12q-9 0 -26 -0.5t-25 -0.5v112q31 -4 69 -4q111 0 111 79q0 34 -21.5 54.5t-63.5 20.5q-81 0 -148 -56l-70 85q108 84 236 84
q94 0 155 -49.5t61 -124.5q0 -53 -29.5 -93t-73.5 -54q56 -19 87.5 -59t31.5 -93z" />
    <glyph glyph-name="four" unicode="4" 
d="M527 125h-45l-31 2q5 -13 5 -36v-115l-127 -16v143l2 25q-12 -3 -32 -3h-265v91l193 453h138l-142 -338q-25 -59 -47 -93q11 2 21 2h113l24 -1q-1 13 -1 18q0 64 7 133l11 117l105 24v-197q0 -53 -3 -95q20 1 32 1h42v-115z" />
    <glyph glyph-name="five" unicode="5" 
d="M492 224q0 -111 -88.5 -182.5t-226.5 -71.5q-39 0 -76 7l-29 99q53 -14 94 -14q80 0 130.5 41t50.5 105q0 48 -30 77t-79 29q-56 0 -146 -28l32 379h341l-20 -114h-196l-14 -138q26 5 47 5q93 0 151.5 -54t58.5 -140z" />
    <glyph glyph-name="six" unicode="6" 
d="M522 214q0 -97 -67.5 -162.5t-166.5 -65.5q-110 0 -180.5 79t-70.5 203q0 177 138 306q101 95 257 145l29 -96q-55 -22 -80.5 -33.5t-62.5 -37.5t-63 -60q-37 -46 -54 -100q41 33 107 33q91 0 152.5 -61t61.5 -150zM381 212q0 48 -24.5 76.5t-66.5 28.5q-47 0 -104 -33
q-3 -29 -3 -60q0 -64 26 -99.5t73 -35.5q45 0 72 33.5t27 89.5z" />
    <glyph glyph-name="seven" unicode="7" 
d="M517 665l-22 -117q-52 -75 -99 -161q-33 -60 -73.5 -158t-53.5 -168l-13 -70l-147 -37q30 125 72 240q41 110 88 201q45 88 93 153q-15 -4 -40 -4h-265l30 121h430z" />
    <glyph glyph-name="eight" unicode="8" 
d="M537 183q0 -85 -67 -142q-70 -61 -201 -61q-102 0 -174.5 47.5t-72.5 144.5q0 56 33 103t85 66q-47 18 -73 60.5t-26 90.5q0 83 66.5 134t173.5 51q101 0 165.5 -48.5t64.5 -125.5q0 -51 -35.5 -91.5t-93.5 -56.5q155 -53 155 -172zM386 165q0 47 -38 72q-40 26 -113 51
q-64 -37 -64 -106q0 -47 30.5 -75t82.5 -28q45 0 73.5 24t28.5 62zM362 507q0 72 -91 72q-41 0 -66.5 -20.5t-25.5 -54.5q0 -10 3 -19.5t6.5 -16t12 -14t13 -11.5t17 -10.5t16.5 -8.5t18 -8t16 -7q81 41 81 98z" />
    <glyph glyph-name="nine" unicode="9" 
d="M524 404q0 -199 -164 -338q-100 -84 -212 -123l-73 82q81 21 161.5 86t102.5 128q-41 -19 -81 -19q-92 0 -153.5 64t-61.5 159q0 101 68.5 167.5t173.5 66.5q112 0 175.5 -72.5t63.5 -200.5zM379 440q0 63 -26 98.5t-71 35.5q-43 0 -68.5 -34.5t-25.5 -92.5
q0 -54 27.5 -86.5t73.5 -32.5q44 0 80 37q10 34 10 75z" />
    <glyph glyph-name="colon" unicode=":" horiz-adv-x="294" 
d="M233 68q0 -35 -25.5 -59.5t-61.5 -24.5q-35 0 -60.5 24.5t-25.5 59.5q0 37 25.5 63.5t61.5 25.5t61 -26.5t25 -62.5zM234 368q0 -36 -25.5 -61t-61.5 -25q-35 0 -60 25t-25 60q0 36 25 62t60 26q36 0 61.5 -25.5t25.5 -61.5z" />
    <glyph glyph-name="semicolon" unicode=";" horiz-adv-x="314" 
d="M254 35q0 -64 -40 -114.5t-102 -65.5l-52 56q32 8 51.5 23.5t19.5 33.5q0 16 -23 30q-42 25 -42 70q0 38 25 63t63 25q43 0 71.5 -34t28.5 -87zM241 369q0 -35 -25 -60.5t-60 -25.5q-36 0 -61.5 25t-25.5 60q0 36 24.5 62t59.5 26q36 0 62 -25.5t26 -61.5z" />
    <glyph glyph-name="less" unicode="&#x3c;" horiz-adv-x="406" 
d="M366 78l-105 -90l-241 311l241 311l105 -92l-168 -219z" />
    <glyph glyph-name="equal" unicode="=" horiz-adv-x="628" 
d="M588 336h-548v126h548v-126zM588 144h-548v126h548v-126z" />
    <glyph glyph-name="greater" unicode="&#x3e;" horiz-adv-x="406" 
d="M386 299l-241 -311l-105 90l168 221l-168 219l105 92z" />
    <glyph glyph-name="question" unicode="?" horiz-adv-x="474" 
d="M419 538q0 -32 -8.5 -58t-25 -44.5t-28 -28t-30.5 -21.5q-75 -48 -77 -130q0 -13 2 -35h-115l-5 26q-12 60 10 106t78 86q3 2 14.5 10t15.5 11t13 11t12.5 14.5t7 15.5t3.5 19q0 35 -23 52t-59 17q-12 0 -22.5 -1.5t-20.5 -5.5t-17 -6.5t-16 -8.5t-12 -8.5t-12 -8.5
l-8 -7l-61 86q27 28 76.5 52t117.5 24q80 0 135 -45.5t55 -121.5zM291 70q0 -34 -24.5 -58.5t-59.5 -24.5q-34 0 -57.5 24t-23.5 59q0 34 24 58.5t59 24.5q34 0 58 -24.5t24 -58.5z" />
    <glyph glyph-name="at" unicode="@" horiz-adv-x="891" 
d="M851 276q0 -129 -66.5 -212t-160.5 -83q-36 0 -59.5 7.5t-34.5 22t-15 28t-6 34.5q-67 -80 -150 -80q-62 0 -96.5 38.5t-34.5 111.5q0 131 77 223t207 92q65 0 142 -41q-20 -67 -63 -269q-12 -58 -5 -74t41 -16q46 0 76 61t30 157q0 119 -76.5 191.5t-202.5 72.5
q-120 0 -207.5 -99.5t-87.5 -239.5q0 -134 78.5 -211.5t198.5 -77.5q78 0 144 22l18 -85q-86 -28 -162 -28q-175 0 -285.5 102t-110.5 278q0 117 53 215t148.5 156t212.5 58q170 0 283.5 -98.5t113.5 -255.5zM539 372q-15 7 -36 7q-82 0 -123.5 -72.5t-41.5 -167.5
q0 -63 42 -63q34 0 72 34.5t50 90.5z" />
    <glyph glyph-name="A" unicode="A" horiz-adv-x="582" 
d="M590 0h-150l-49 165h-204l-49 -165h-146l228 697h151zM357 281q-23 73 -38 140l-28 123q-20 -82 -33 -134q-20 -77 -37 -129h136z" />
    <glyph glyph-name="B" unicode="B" horiz-adv-x="600" 
d="M560 194q0 -77 -47.5 -132.5t-134.5 -59.5q-44 -2 -89 -2h-219v695h235q64 0 101.5 -11t69.5 -39q57 -50 57 -124q0 -72 -47 -116q-25 -24 -64 -36q66 -19 102 -63.5t36 -111.5zM402 211q0 30 -14 54t-37 31q-20 6 -54 6h-87v-188h91q45 0 65 16q36 27 36 81zM387 497
q0 23 -11 43t-29 27q-22 9 -58 9h-81v-159h83q42 0 60 9q14 8 25 29t11 42z" />
    <glyph glyph-name="C" unicode="C" horiz-adv-x="564" 
d="M544 53q-79 -65 -193 -65q-143 0 -227 96q-84 94 -84 249q0 128 47 216q40 76 111 118.5t155 42.5q51 0 99 -15t77 -40l-63 -95q-52 39 -111 39q-35 0 -67 -16t-51 -44q-39 -58 -39 -179q0 -134 29 -186q43 -78 134 -78q63 0 119 45z" />
    <glyph glyph-name="D" unicode="D" horiz-adv-x="618" 
d="M578 345q0 -147 -70 -241q-68 -92 -169 -100q-52 -4 -100 -4h-169v695h140q65 0 121 -4q91 -8 152 -69q95 -94 95 -277zM421 332q0 138 -35 195q-35 58 -110 58h-64v-471h75q69 0 101.5 53.5t32.5 164.5z" />
    <glyph glyph-name="E" unicode="E" horiz-adv-x="495" 
d="M475 0h-405v695h396l-18 -114h-238v-161h199v-114h-197v-186h263v-120z" />
    <glyph glyph-name="F" unicode="F" horiz-adv-x="437" 
d="M447 695l-16 -113h-221v-159h177v-114h-177v-309h-140v695h377z" />
    <glyph glyph-name="G" unicode="G" horiz-adv-x="642" 
d="M582 54q-105 -62 -231 -62q-155 0 -237 106q-74 94 -74 243q0 219 145 316q74 49 169 49q129 0 221 -80l-74 -87q-66 54 -145 54q-63 0 -100 -35q-59 -56 -59 -224q0 -146 52 -198q41 -39 109 -39q46 0 79 17v158h-106l-18 114h269v-332z" />
    <glyph glyph-name="H" unicode="H" horiz-adv-x="621" 
d="M551 0h-142v310h-200v-310h-139v695h139v-270h200v270h142v-695z" />
    <glyph glyph-name="I" unicode="I" horiz-adv-x="286" 
d="M216 0h-146v695h146v-695z" />
    <glyph glyph-name="J" unicode="J" horiz-adv-x="287" 
d="M217 135q0 -96 -10 -136q-14 -58 -60.5 -100t-101.5 -63l-65 72q61 37 81 84q14 32 14 128v575h142v-560z" />
    <glyph glyph-name="K" unicode="K" horiz-adv-x="588" 
d="M608 0h-184l-211 363v-363h-143v695h143v-317l198 317h172l-222 -322z" />
    <glyph glyph-name="L" unicode="L" horiz-adv-x="467" 
d="M462 116l-25 -116h-367v695h143v-579h249z" />
    <glyph glyph-name="M" unicode="M" horiz-adv-x="818" 
d="M768 0h-137l-26 371q-5 73 -5 116q-11 -53 -26 -107l-110 -380h-119l-99 365q-19 72 -28 123q0 -53 -5 -125l-24 -363h-139l65 695h179l91 -348q16 -61 24 -110q9 52 25 113l94 345h178z" />
    <glyph glyph-name="N" unicode="N" horiz-adv-x="623" 
d="M553 0h-146l-119 266q-77 172 -94 228q4 -51 7 -197l4 -297h-135v695h155l133 -278q51 -108 76 -197q-9 98 -11 191l-3 284h133v-695z" />
    <glyph glyph-name="O" unicode="O" horiz-adv-x="680" 
d="M640 351q0 -118 -40 -203.5t-115 -126.5q-58 -32 -139 -32q-79 0 -132.5 23t-93.5 75q-80 103 -80 258q0 113 41 198.5t116 126.5q63 34 144 34q139 0 219 -94.5t80 -258.5zM479 347q0 103 -18 161q-10 33 -41 60.5t-81 27.5q-35 0 -64 -16.5t-44 -44.5q-35 -66 -35 -190
q0 -181 62 -225q33 -24 83 -24q73 0 105.5 59t32.5 192z" />
    <glyph glyph-name="P" unicode="P" horiz-adv-x="566" 
d="M546 481q0 -69 -31.5 -122t-88.5 -80q-49 -23 -139 -23h-77v-256h-140v695h183q83 0 121.5 -8t71.5 -26q100 -55 100 -180zM393 478q0 49 -25 76.5t-69 27.5h-89v-212h73q43 0 61 7t32 29q17 27 17 72z" />
    <glyph glyph-name="Q" unicode="Q" horiz-adv-x="680" 
d="M713 -27l-37 -91q-20 -12 -62 -12q-53 0 -128 49q-73 49 -141 70q-78 0 -131.5 23t-93.5 75q-80 103 -80 258q0 113 41 199t116 126q63 34 144 34q139 0 219 -94.5t80 -258.5q0 -111 -36.5 -194t-100.5 -125q15 -5 62 -35q48 -29 86 -29zM479 347q0 103 -18 161
q-10 33 -41 60.5t-81 27.5q-35 0 -64 -16.5t-44 -44.5q-35 -66 -35 -190q0 -181 62 -225q33 -24 83 -24q73 0 105.5 59t32.5 192z" />
    <glyph glyph-name="R" unicode="R" horiz-adv-x="584" 
d="M574 0h-165q-36 61 -65 114q-54 97 -75.5 129.5t-39.5 40.5q-11 5 -22 6v-290h-137v695h259q92 0 148 -56t56 -148q0 -78 -45.5 -134.5t-109.5 -57.5q18 -14 29 -29q18 -22 59.5 -89.5t74.5 -124.5zM386 488q0 67 -50 85q-27 10 -79 10h-50v-188h47q79 0 105 23
q27 25 27 70z" />
    <glyph glyph-name="S" unicode="S" horiz-adv-x="584" 
d="M554 219q0 -106 -78.5 -170t-208.5 -64q-127 0 -237 63l52 109q107 -56 191 -56q122 0 122 95q0 65 -91 90l-77 21q-101 28 -137 88q-29 47 -29 106q0 95 69.5 155t179.5 60q135 0 232 -70l-66 -100q-88 53 -162 53q-43 0 -70 -22.5t-27 -57.5q0 -27 17 -42.5t60 -27.5
l84 -23q85 -23 130.5 -76.5t45.5 -130.5z" />
    <glyph glyph-name="T" unicode="T" horiz-adv-x="491" 
d="M511 695l-23 -116h-166v-579h-142v579h-170v116h501z" />
    <glyph glyph-name="U" unicode="U" horiz-adv-x="636" 
d="M568 227q0 -76 -11 -109q-17 -51 -75.5 -91t-160.5 -40q-164 0 -223 93q-17 27 -23.5 54t-6.5 77v484h143v-457q0 -60 12 -83q25 -48 95 -48q46 0 73.5 21.5t32.5 59.5q2 15 2 62v445h142v-468z" />
    <glyph glyph-name="V" unicode="V" horiz-adv-x="565" 
d="M585 695l-242 -700h-127l-236 700h153l115 -362q18 -55 32 -121q12 57 40 139l118 344h147z" />
    <glyph glyph-name="W" unicode="W" horiz-adv-x="832" 
d="M832 695l-168 -701h-153l-62 283q-25 113 -33 200q-9 -82 -33 -198l-58 -285h-159l-166 701h148l60 -274q12 -58 21.5 -115t12.5 -86l3 -28q13 117 36 222l62 281h153l64 -311l30 -184q2 22 15 103.5t23 127.5l57 264h147z" />
    <glyph glyph-name="X" unicode="X" horiz-adv-x="562" 
d="M577 0h-169l-125 245l-124 -245h-174l218 372l-188 323h171l94 -187l95 187h167l-181 -314z" />
    <glyph glyph-name="Y" unicode="Y" horiz-adv-x="534" 
d="M559 695l-222 -409v-286h-146v286l-216 409h168l89 -190q22 -46 35 -89q19 47 37 87l90 192h165z" />
    <glyph glyph-name="Z" unicode="Z" horiz-adv-x="530" 
d="M500 114l-36 -114h-434v98l256 423l43 63q-29 -5 -71 -5h-214l31 116h416v-101l-258 -435l-36 -49q41 4 69 4h234z" />
    <glyph glyph-name="bracketleft" unicode="[" horiz-adv-x="300" 
d="M280 -156h-210v888h210v-90h-90v-708h90v-90z" />
    <glyph glyph-name="backslash" unicode="\" horiz-adv-x="433" 
d="M423 -18l-113 -35l-300 779l114 35z" />
    <glyph glyph-name="bracketright" unicode="]" horiz-adv-x="300" 
d="M230 -156h-210v90h90v708h-90v90h210v-888z" />
    <glyph glyph-name="asciicircum" unicode="^" horiz-adv-x="596" 
d="M551 343h-142l-111 238l-112 -238h-141l180 365h146z" />
    <glyph glyph-name="underscore" unicode="_" horiz-adv-x="500" 
d="M500 -125h-500v50h500v-50z" />
    <glyph glyph-name="grave" unicode="`" horiz-adv-x="325" 
d="M295 631l-41 -74l-224 100l58 104z" />
    <glyph glyph-name="a" unicode="a" horiz-adv-x="512" 
d="M488 56l-71 -82q-52 22 -72 62q-18 -18 -31 -27q-39 -28 -103 -28q-85 0 -130.5 41.5t-45.5 118.5q0 176 246 176q19 0 30 -1v21q0 44 -12 60t-48 16q-62 0 -148 -58l-57 96q35 22 83 42q71 30 140 30q64 0 107 -23t58 -66q10 -30 9 -92l-3 -172q-1 -45 7.5 -67.5
t40.5 -46.5zM309 224h-6q-71 0 -98 -16.5t-27 -61.5q0 -30 16.5 -48.5t42.5 -18.5q38 0 70 35z" />
    <glyph glyph-name="b" unicode="b" horiz-adv-x="552" 
d="M512 265q0 -160 -95 -235q-50 -40 -112 -40q-71 0 -114 47q-5 -23 -14 -37h-120q13 30 13 109v474q0 89 -9 126l137 32q5 -44 5 -91v-121q0 -33 -3 -45q38 41 109 41q94 0 148.5 -70t54.5 -190zM360 262q0 61 -6 87q-15 65 -73 65q-39 0 -76 -41v-236q37 -33 75 -33
q49 0 65 40q15 35 15 118z" />
    <glyph glyph-name="c" unicode="c" horiz-adv-x="455" 
d="M435 58q-24 -24 -47 -38q-55 -32 -125 -32q-106 0 -164.5 69.5t-58.5 194.5q0 165 105 237q56 38 127 38q56 0 99 -23q21 -11 50 -36l-65 -88q-43 40 -81 40q-45 0 -66 -41t-21 -131q0 -95 26 -129q23 -29 60 -29q44 0 92 42l8 7z" />
    <glyph glyph-name="d" unicode="d" horiz-adv-x="549" 
d="M498 0h-120q-5 10 -8 30q-49 -43 -118 -43q-97 0 -154.5 70.5t-57.5 189.5q0 120 61 195t158 75q55 0 91 -29q-4 22 -4 76v176l133 -21v-532q0 -145 19 -187zM348 133v244q-38 33 -73 33q-45 0 -65.5 -39t-20.5 -125q0 -82 20 -114t73 -32q39 0 66 33z" />
    <glyph glyph-name="e" unicode="e" horiz-adv-x="506" 
d="M481 214h-296v-4q0 -59 28 -91.5t80 -32.5q69 0 130 51l52 -80q-87 -71 -193 -71q-110 0 -176 72t-66 193q0 132 64 203q62 69 161 69q96 0 148 -54q68 -69 68 -224v-31zM342 312v6q0 52 -16 77q-20 30 -59 30q-38 0 -59 -29t-21 -82v-2h155z" />
    <glyph glyph-name="f" unicode="f" horiz-adv-x="304" 
d="M354 709l-43 -83q-35 17 -55 17q-26 0 -41 -15.5t-15 -42.5v-73h130l-34 -92h-95v-420h-131v420h-46v92h49q-5 35 -5 70q0 76 43 117.5t122 41.5q64 0 121 -32z" />
    <glyph glyph-name="g" unicode="g" horiz-adv-x="553" 
d="M577 456q-41 -38 -94 -38q-11 0 -35 3q30 -36 30 -84q0 -66 -53.5 -109t-135.5 -43q-10 0 -20 1q-53 -25 -53 -42q0 -12 22 -12l72 -1q106 -1 155 -46q44 -41 44 -109q0 -62 -41 -106q-62 -66 -202 -66q-135 0 -194 55q-42 39 -42 91q0 28 12 52h124q-6 -14 -6 -33
q0 -63 96 -63q57 0 84 17q33 20 33 52q0 59 -94 61l-57 1q-88 1 -123 16q-39 15 -39 67q0 30 18.5 50.5t75.5 35.5q-110 28 -110 142q0 79 59 126t157 47q39 0 92 -13q44 -11 63 -11q57 0 106 44zM340 347q0 36 -21.5 56t-59.5 20t-59 -20t-21 -56q0 -73 79 -73q82 0 82 73z
" />
    <glyph glyph-name="h" unicode="h" horiz-adv-x="565" 
d="M495 0h-131v344q0 38 -12 54t-40 16q-54 0 -106 -47v-367h-136v592q0 82 -10 117l137 32q9 -42 9 -125v-102q0 -9 -1 -25t-1 -18q26 25 66 40t79 15q49 0 85 -19.5t48 -53.5q13 -38 13 -95v-358z" />
    <glyph glyph-name="i" unicode="i" horiz-adv-x="274" 
d="M204 0h-134v503l134 21v-524zM220 653q0 -35 -24 -59t-59 -24q-34 0 -58 24.5t-24 58.5t24.5 58.5t59.5 24.5q34 0 57.5 -24t23.5 -59z" />
    <glyph glyph-name="j" unicode="j" horiz-adv-x="273" 
d="M203 14q0 -110 -38 -159q-36 -47 -104 -75l-56 74q30 25 49 58q16 29 16 98v481l133 32v-509zM221 655q0 -35 -24.5 -59.5t-59.5 -24.5q-34 0 -58 24t-24 58q0 35 24.5 59.5t58.5 24.5t58.5 -24t24.5 -58z" />
    <glyph glyph-name="k" unicode="k" horiz-adv-x="517" 
d="M204 0h-134v577q0 73 -9 133l135 33q8 -51 8 -166v-577zM537 0h-158l-172 290l131 222h161l-163 -214z" />
    <glyph glyph-name="l" unicode="l" horiz-adv-x="281" 
d="M281 2q-36 -14 -80 -14q-43 0 -75 19t-44 51q-12 31 -12 115v382q0 90 -7 154l137 31q7 -39 7 -133v-399q0 -98 9 -114q8 -14 27 -14q8 0 15 2z" />
    <glyph glyph-name="m" unicode="m" horiz-adv-x="793" 
d="M723 0h-130v338q0 46 -8 59.5t-34 13.5q-41 0 -89 -43v-368h-127v333q0 48 -9 63.5t-37 15.5q-45 0 -88 -39v-373h-131v357q0 97 -19 131l121 33q11 -18 18 -52q54 52 125 52q63 0 104 -42q10 -10 20 -25q66 67 145 67q64 0 101 -32q22 -19 30 -45.5t8 -79.5v-364z" />
    <glyph glyph-name="n" unicode="n" horiz-adv-x="544" 
d="M474 0h-132v333q0 44 -9.5 59.5t-35.5 15.5q-42 0 -93 -46v-362h-134v371q0 69 -18 120l119 34q19 -33 19 -64q38 26 59 38q42 22 92 22q43 0 77 -20.5t46 -53.5q10 -27 10 -73v-374z" />
    <glyph glyph-name="o" unicode="o" horiz-adv-x="533" 
d="M498 258q0 -125 -64 -198q-63 -71 -169 -71q-104 0 -167 72t-63 193t63 194.5t167 73.5q109 0 174 -77q59 -69 59 -187zM352 259q0 103 -27 137q-21 27 -58 27q-51 0 -69 -52q-14 -42 -14 -114q0 -89 17 -129q9 -20 28 -31t40 -11q44 0 63.5 41t19.5 132z" />
    <glyph glyph-name="p" unicode="p" horiz-adv-x="552" 
d="M512 270q0 -82 -15.5 -131t-55.5 -92q-55 -58 -137 -58q-61 0 -107 27q2 -12 2 -42v-160l-129 -34v592q0 80 -8 129l119 21q8 -28 9 -48q17 21 52 34.5t74 13.5q55 0 101 -31q95 -64 95 -221zM366 257q0 77 -13 113q-15 43 -64 43q-52 0 -89 -39v-249q36 -30 74 -30
q50 0 71 37t21 125z" />
    <glyph glyph-name="q" unicode="q" horiz-adv-x="551" 
d="M493 513q-12 -52 -12 -151v-550l-127 -34v194q0 35 3 52q-41 -36 -102 -36q-108 0 -161.5 74t-53.5 186q0 129 52 196q29 37 71.5 59t88.5 22q40 0 76 -15.5t44 -36.5q1 21 10 40h111zM354 137v241q-33 35 -77 35q-90 0 -90 -148q0 -28 0.5 -43.5t5.5 -42.5t13.5 -42
t26.5 -27t44 -12q44 0 77 39z" />
    <glyph glyph-name="r" unicode="r" horiz-adv-x="347" 
d="M362 513l-37 -118q-19 10 -39 10q-45 0 -82 -43v-362h-134v342q0 100 -19 150l120 32q18 -32 21 -73q54 73 120 73q24 0 50 -11z" />
    <glyph glyph-name="s" unicode="s" horiz-adv-x="481" 
d="M451 162q0 -80 -60.5 -129t-158.5 -49q-94 0 -207 59l48 98q95 -58 170 -58q29 0 48.5 16.5t19.5 41.5q0 26 -19 40.5t-60 22.5l-60 11q-25 4 -52.5 19.5t-41.5 32.5q-29 35 -29 92q0 75 54.5 121t143.5 46q85 0 183 -48l-44 -90q-73 37 -126 37q-29 0 -47 -13.5
t-18 -36.5q0 -20 14.5 -31.5t49.5 -20.5l62 -16q71 -18 102 -58q28 -35 28 -87z" />
    <glyph glyph-name="t" unicode="t" horiz-adv-x="341" 
d="M326 11q-56 -23 -109 -23q-51 0 -88.5 20.5t-49.5 54.5q-9 25 -9 79v278h-51v92h51q0 83 5 121l136 34q-8 -75 -8 -155h120l-34 -92h-86v-257q0 -49 12 -65.5t46 -16.5q14 0 48 10z" />
    <glyph glyph-name="u" unicode="u" horiz-adv-x="536" 
d="M497 40l-95 -54q-27 19 -40 50q-51 -49 -135 -49q-54 0 -96 23t-55 60q-11 32 -11 102v328l132 25v-329q0 -62 11 -84q12 -24 47 -24q25 0 50 15t33 34v360l128 27v-391q0 -56 31 -93z" />
    <glyph glyph-name="v" unicode="v" horiz-adv-x="464" 
d="M474 512l-187 -512h-111l-186 504l137 17l74 -231q20 -62 33 -123q7 54 31 130l69 215h140z" />
    <glyph glyph-name="w" unicode="w" horiz-adv-x="699" 
d="M699 512l-146 -512h-123l-46 176q-21 78 -29 124q-3 21 -8 51q-4 -28 -12 -66q-10 -44 -44 -180l-26 -105h-125l-140 503l133 15l42 -197l29 -159q13 91 37 178l48 172h126l41 -169l38 -181q14 101 28 167l39 183h138z" />
    <glyph glyph-name="x" unicode="x" horiz-adv-x="500" 
d="M515 0h-170l-54 94q-5 9 -21.5 41t-18.5 35q-12 -35 -51 -99l-43 -71h-172l189 273l-142 215l139 39q45 -75 69 -125q8 -16 16 -34q11 30 45 100q13 27 24 44h158l-152 -236z" />
    <glyph glyph-name="y" unicode="y" horiz-adv-x="497" 
d="M502 512l-186 -520q-26 -73 -48 -110.5t-50 -58.5q-51 -37 -124 -47l-46 88q57 16 83 34q21 15 38 42q14 23 29 60h-34q-5 16 -17.5 52.5t-20.5 60.5t-10 31l-121 360l137 16l89 -299q3 -13 9.5 -38t11.5 -45t6 -23q0 15 16 82q9 37 20 71l77 244h141z" />
    <glyph glyph-name="z" unicode="z" horiz-adv-x="469" 
d="M439 93l-32 -93h-377v83l241 335h-221v94h380v-92l-226 -327h235z" />
    <glyph glyph-name="braceleft" unicode="{" horiz-adv-x="382" 
d="M362 -156h-105q-57 0 -93 36t-36 110v172q0 22 -12.5 37t-32.5 21t-35 8.5t-28 2.5v114q13 0 28 2.5t35 8.5t32.5 21t12.5 37v173q0 74 35 109.5t94 35.5h105v-114h-49q-22 0 -36 -6t-19.5 -16.5t-7.5 -19.5t-2 -22v-161q0 -33 -9 -54.5t-26.5 -31t-30.5 -13t-34 -5.5v-2
q21 -1 34.5 -4.5t30.5 -13t26 -31t9 -54.5v-162q0 -13 2 -22t7.5 -19.5t19.5 -16.5t36 -6h49v-114z" />
    <glyph glyph-name="bar" unicode="|" horiz-adv-x="266" 
d="M196 -208h-126v964h126v-964z" />
    <glyph glyph-name="braceright" unicode="}" horiz-adv-x="382" 
d="M362 231q-14 0 -29 -2.5t-34.5 -8.5t-32 -21t-12.5 -37v-173q0 -74 -35 -109.5t-94 -35.5h-105v114h49q22 0 36 6t19.5 16.5t7.5 19.5t2 22v161q0 33 9 54.5t26.5 31t30.5 13t34 5.5v2q-21 1 -34.5 4.5t-30.5 13t-26 31t-9 54.5v162q0 13 -2 22t-7.5 19.5t-19.5 16.5
t-36 6h-49v114h108q55 0 90.5 -36t35.5 -110v-172q0 -22 12.5 -37t32 -21t34.5 -8.5t29 -2.5v-114z" />
    <glyph glyph-name="asciitilde" unicode="~" horiz-adv-x="552" 
d="M507 292q-45 -86 -125 -86q-39 0 -111 32q-7 3 -21.5 9.5t-23 10t-20 8t-20.5 6.5t-17 2q-19 0 -37 -12.5t-25.5 -22t-25.5 -33.5l-36 108q45 86 125 86q39 0 111 -32q7 -3 21.5 -9.5t23 -10t20 -8t20.5 -6.5t17 -2q19 0 37 12.5t25.5 22t25.5 33.5z" />
    <glyph glyph-name="nbspace" unicode="&#xa0;" horiz-adv-x="225" 
 />
    <glyph glyph-name="exclamdown" unicode="&#xa1;" horiz-adv-x="295" 
d="M229 -178l-160 -23l28 489h102zM230 439q0 -35 -24 -59t-59 -24q-34 0 -58 24.5t-24 58.5t24.5 58.5t59.5 24.5q34 0 57.5 -24t23.5 -59z" />
    <glyph glyph-name="cent" unicode="&#xa2;" horiz-adv-x="455" 
d="M435 58q-24 -24 -47 -38q-35 -21 -77 -28v-103h-94v103q-84 14 -130.5 82t-46.5 178q0 165 105 237q31 21 72 31v97h94v-96q26 0 60 -17q21 -11 50 -36l-65 -88q-43 40 -81 40q-45 0 -66 -41t-21 -131q0 -95 26 -129q23 -29 60 -29q44 0 92 42l8 7z" />
    <glyph glyph-name="sterling" unicode="&#xa3;" horiz-adv-x="583" 
d="M593 652l-100 -107q-43 43 -91 43q-62 0 -89 -36t-27 -89v-49h156v-102h-156v-198h253v-114h-499v114h96v198h-96v102h96v71q0 96 66.5 165.5t181.5 69.5q134 0 209 -68z" />
    <glyph glyph-name="currency" unicode="&#xa4;" horiz-adv-x="624" 
d="M604 33q-39 -25 -73 -35t-90 -10q-143 0 -227 96q-49 55 -70 132h-114v98h100v19q0 40 2 58h-102v98h122q11 34 25 60q40 76 111 118.5t155 42.5q86 0 146 -35l-33 -115q-52 39 -111 39q-35 0 -67 -16t-51 -44q-13 -18 -23 -50h193v-98h-208q0 -5 -0.5 -15t-0.5 -16
q0 -32 1 -46h208v-98h-196q6 -26 16 -42q43 -78 134 -78q63 0 119 45z" />
    <glyph glyph-name="yen" unicode="&#xa5;" horiz-adv-x="558" 
d="M571 695l-153 -280h103v-103h-158l-14 -26v-50h172v-103h-172v-133h-146v133h-169v103h169v50l-14 26h-155v103h101l-148 280h168l89 -190q22 -46 35 -89q19 47 37 87l90 192h165z" />
    <glyph glyph-name="brokenbar" unicode="&#xa6;" horiz-adv-x="266" 
d="M196 342h-126v414h126v-414zM196 -208h-126v414h126v-414z" />
    <glyph glyph-name="section" unicode="&#xa7;" horiz-adv-x="588" 
d="M548 281q0 -40 -23.5 -76t-60.5 -54q55 -44 55 -119q0 -62 -40 -105t-93.5 -60.5t-112.5 -17.5q-174 0 -233 126l128 63q8 -34 40 -51.5t69 -17.5q30 0 55 12t25 40q0 22 -22.5 39.5t-55.5 29.5t-72.5 30t-72.5 37.5t-55.5 55t-22.5 80.5q0 94 87 148q-63 42 -63 115
q0 55 33.5 95t81 57.5t100.5 17.5q73 0 134.5 -25.5t89.5 -83.5l-126 -72q-10 28 -35.5 44.5t-56.5 16.5q-26 0 -45.5 -14t-19.5 -39q0 -27 32 -48t78 -38.5t92 -38.5t78 -59t32 -88zM410 253q0 42 -65 72l-116 55q-35 -20 -35 -59q0 -17 6 -30t21.5 -23.5t23 -14.5
t29.5 -14l102 -47q34 20 34 61z" />
    <glyph glyph-name="dieresis" unicode="&#xa8;" horiz-adv-x="464" 
d="M414 635q0 -31 -23 -54t-54 -23t-53.5 22.5t-22.5 54.5t23 54.5t55 22.5q31 0 53 -22.5t22 -54.5zM203 635q0 -31 -22.5 -54t-54.5 -23q-31 0 -53.5 23t-22.5 54t23 54t55 23q31 0 53 -22.5t22 -54.5z" />
    <glyph glyph-name="copyright" unicode="&#xa9;" horiz-adv-x="824" 
d="M784 354q0 -154 -109 -263t-263 -109t-263 109t-109 263t109 263t263 109t263 -109t109 -263zM682 354q0 116 -79 199t-191 83t-191 -83t-79 -199t79 -199t191 -83t191 83t79 199zM540 198q-57 -43 -122 -43q-83 0 -132.5 52t-49.5 139q0 91 50 149t133 58q66 0 112 -38
l-46 -66q-38 25 -65 25q-75 0 -75 -114q0 -68 18.5 -98t60.5 -30q37 0 67 28z" />
    <glyph glyph-name="ordfeminine" unicode="&#xaa;" horiz-adv-x="425" 
d="M382 422l-48 -62q-47 19 -59 47q-16 -15 -24 -21q-29 -21 -77 -21q-63 0 -97.5 31.5t-34.5 88.5q0 132 185 132h22v15q0 33 -9 45t-36 12q-48 0 -111 -43l-43 72q19 12 63 31q53 23 105 23q100 0 123 -67q8 -22 7 -69l-2 -129v-7q0 -31 7 -46.5t29 -31.5zM395 231h-365
v78h365v-78zM248 548h-5q-53 0 -73.5 -12.5t-20.5 -46.5q0 -22 12.5 -36t32.5 -14q28 0 52 26z" />
    <glyph glyph-name="guillemotleft" unicode="&#xab;" horiz-adv-x="542" 
d="M517 76l-91 -61l-159 234l159 234l91 -61l-116 -173zM275 76l-91 -61l-159 234l159 234l91 -61l-116 -173z" />
    <glyph glyph-name="logicalnot" unicode="&#xac;" horiz-adv-x="521" 
d="M481 58h-123v140h-318v109h441v-249z" />
    <glyph glyph-name="registered" unicode="&#xae;" horiz-adv-x="824" 
d="M784 354q0 -154 -109 -263t-263 -109t-263 109t-109 263t109 263t263 109t263 -109t109 -263zM682 354q0 116 -79 199t-191 83t-191 -83t-79 -199t79 -199t191 -83t191 83t79 199zM580 171h-115q-35 57 -40 65q-47 80 -54 86v-151h-97v382h153q56 0 89.5 -32t33.5 -85
q0 -42 -25 -71t-63 -33q23 -9 51 -52zM447 435q0 39 -49 39h-27v-77h26q28 0 39 9t11 29z" />
    <glyph glyph-name="macron" unicode="&#xaf;" horiz-adv-x="354" 
d="M334 666h-314v78h314v-78z" />
    <glyph glyph-name="degree" unicode="&#xb0;" horiz-adv-x="401" 
d="M371 533q0 -82 -47 -128q-48 -46 -125 -46t-123 46.5t-46 125.5q0 78 46.5 126t122.5 48q78 0 128 -50q44 -44 44 -122zM260 535q0 61 -20 80q-16 16 -42 16q-37 0 -50 -30q-9 -22 -9 -67q0 -58 11 -75q16 -25 50 -25q32 0 46 24t14 77z" />
    <glyph glyph-name="plusminus" unicode="&#xb1;" horiz-adv-x="503" 
d="M463 283h-150v-143h-123v143h-150v113h150v137h123v-137h150v-113zM461 0h-419v113h419v-113z" />
    <glyph glyph-name="twosuperior" unicode="&#xb2;" horiz-adv-x="374" 
d="M344 333l-23 -83h-275v67q70 65 103 100q62 64 62 111q0 42 -39 42q-32 0 -86 -42l-56 63q77 65 165 65q57 0 92 -33t35 -86q0 -27 -13 -55.5t-41 -59t-43.5 -46t-48.5 -44.5q6 0 18 0.5t17 0.5h133z" />
    <glyph glyph-name="threesuperior" unicode="&#xb3;" horiz-adv-x="366" 
d="M336 386q0 -65 -63 -104.5t-159 -39.5q-27 0 -57 4l-27 74q41 -7 61 -7q60 0 95 22.5t35 56.5q0 12 -5 20t-11 12t-17.5 6t-18.5 2.5t-20 0.5h-40v81q34 -4 51 -4q57 0 57 39q0 33 -41 33q-46 0 -91 -36l-54 64q76 56 155 56q59 0 99.5 -31t40.5 -78q0 -53 -47 -84
q57 -29 57 -87z" />
    <glyph glyph-name="acute" unicode="&#xb4;" horiz-adv-x="325" 
d="M295 657l-224 -100l-41 74l207 130z" />
    <glyph glyph-name="mu" unicode="&#xb5;" horiz-adv-x="541" 
d="M502 40l-95 -54q-27 19 -40 50q-51 -49 -135 -49q-19 0 -35 14q2 -20 2 -31v-156l-129 -34v720l132 25v-329q0 -62 11 -84q12 -24 47 -24q25 0 50 15t33 34v360l128 27v-391q0 -56 31 -93z" />
    <glyph glyph-name="paragraph" unicode="&#xb6;" horiz-adv-x="592" 
d="M522 -126h-90v762h-107v-762h-90v464q-96 0 -155.5 51t-59.5 131q0 97 61.5 142.5t171.5 45.5h269v-834z" />
    <glyph glyph-name="periodcentered" unicode="&#xb7;" horiz-adv-x="258" 
d="M218 273q0 -36 -26.5 -62t-63.5 -26t-62.5 26t-25.5 63t26.5 63.5t63.5 26.5t62.5 -26.5t25.5 -64.5z" />
    <glyph glyph-name="cedilla" unicode="&#xb8;" horiz-adv-x="296" 
d="M246 -111q0 -38 -29 -63t-80 -25q-43 0 -87 24l30 63q34 -15 52 -15q10 0 17.5 6t7.5 12q0 20 -25 20l-27 -6l-13 20l24 87l72 -6l-14 -38q36 -4 54 -25.5t18 -53.5z" />
    <glyph glyph-name="onesuperior" unicode="&#xb9;" horiz-adv-x="314" 
d="M284 250h-215v81h64v208q-47 -25 -75 -34l-28 56l134 89h68v-319h52v-81z" />
    <glyph glyph-name="ordmasculine" unicode="&#xba;" horiz-adv-x="425" 
d="M384 566q0 -92 -48 -147q-47 -54 -127 -54q-78 0 -125 54t-47 144q0 91 47.5 146t124.5 55q83 0 131 -57q44 -53 44 -141zM395 231h-365v78h365v-78zM271 567q0 77 -19 99q-16 18 -41 18q-34 0 -49 -37q-11 -28 -11 -81q0 -59 13 -91q6 -14 20 -23t28 -9q31 0 45 29.5
t14 94.5z" />
    <glyph glyph-name="guillemotright" unicode="&#xbb;" horiz-adv-x="542" 
d="M517 249l-159 -234l-91 61l116 173l-116 173l91 61zM275 249l-159 -234l-91 61l116 173l-116 173l91 61z" />
    <glyph glyph-name="onequarter" unicode="&#xbc;" horiz-adv-x="916" 
d="M765 764l-528 -918h-108l528 918h108zM886 71h-37l-7 1q0 -1 0.5 -5t0.5 -6v-75l-96 -11v91l1 5h-178v63l109 267h105l-84 -207q-6 -15 -19 -38h69q0 31 11 141l82 18v-104v-15.5v-20.5v-13l-1 -7q2 0 5 0.5t4 0.5h35v-85zM284 250h-215v81h64v208q-47 -25 -75 -34
l-28 56l134 89h68v-319h52v-81z" />
    <glyph glyph-name="onehalf" unicode="&#xbd;" horiz-adv-x="914" 
d="M744 764l-528 -918h-108l528 918h108zM884 83l-23 -83h-275v67q70 65 103 100q62 64 62 111q0 42 -39 42q-32 0 -86 -42l-56 63q77 65 165 65q57 0 92 -33t35 -86q0 -27 -13 -55.5t-41 -59t-43.5 -46t-48.5 -44.5q6 0 18 0.5t17 0.5h133zM284 250h-215v81h64v208
q-47 -25 -75 -34l-28 56l134 89h68v-319h52v-81z" />
    <glyph glyph-name="threequarters" unicode="&#xbe;" horiz-adv-x="968" 
d="M817 764l-528 -918h-108l528 918h108zM938 71h-37l-7 1q0 -1 0.5 -5t0.5 -6v-75l-96 -11v91l1 5h-178v63l109 267h105l-84 -207q-6 -15 -19 -38h69q0 31 11 141l82 18v-104v-15.5v-20.5v-13l-1 -7q2 0 5 0.5t4 0.5h35v-85zM336 386q0 -65 -63 -104.5t-159 -39.5
q-27 0 -57 4l-27 74q41 -7 61 -7q60 0 95 22.5t35 56.5q0 12 -5 20t-11 12t-17.5 6t-18.5 2.5t-20 0.5h-40v81q34 -4 51 -4q57 0 57 39q0 33 -41 33q-46 0 -91 -36l-54 64q76 56 155 56q59 0 99.5 -31t40.5 -78q0 -53 -47 -84q57 -29 57 -87z" />
    <glyph glyph-name="questiondown" unicode="&#xbf;" horiz-adv-x="474" 
d="M439 -120q-27 -28 -76.5 -52t-117.5 -24q-80 0 -135 45.5t-55 121.5q0 32 8.5 58t25 44.5t28 28t30.5 21.5q75 48 77 130q0 13 -2 35h115l5 -26q12 -60 -10 -106t-78 -86q-3 -2 -14.5 -10t-15.5 -11t-13 -11t-12.5 -14.5t-7 -15.5t-3.5 -19q0 -35 23 -52t59 -17
q12 0 22.5 1.5t20.5 5.5t17 6.5t16 8.5t12 8.5t12 9.5l8 6zM348 439q0 -35 -24 -59t-59 -24q-34 0 -58 24.5t-24 58.5t24.5 58.5t59.5 24.5q34 0 57.5 -24t23.5 -59z" />
    <glyph glyph-name="Agrave" unicode="&#xc0;" horiz-adv-x="582" 
d="M590 0h-150l-49 165h-204l-49 -165h-146l228 697h151zM412 791l-41 -74l-224 100l58 104zM357 281q-23 73 -38 140l-28 123q-20 -82 -33 -134q-20 -77 -37 -129h136z" />
    <glyph glyph-name="Aacute" unicode="&#xc1;" horiz-adv-x="582" 
d="M590 0h-150l-49 165h-204l-49 -165h-146l228 697h151zM447 817l-224 -100l-41 74l207 130zM357 281q-23 73 -38 140l-28 123q-20 -82 -33 -134q-20 -77 -37 -129h136z" />
    <glyph glyph-name="Acircumflex" unicode="&#xc2;" horiz-adv-x="582" 
d="M590 0h-150l-49 165h-204l-49 -165h-146l228 697h151zM472 785l-45 -73l-139 76l-135 -76l-45 73l180 135zM357 281q-23 73 -38 140l-28 123q-20 -82 -33 -134q-20 -77 -37 -129h136z" />
    <glyph glyph-name="Atilde" unicode="&#xc3;" horiz-adv-x="582" 
d="M590 0h-150l-49 165h-204l-49 -165h-146l228 697h151zM469 799q-45 -58 -124 -58q-31 0 -66.5 17t-64.5 17q-41 0 -68 -29l-41 75q46 58 124 58q30 0 66 -17t65 -17q41 0 68 30zM357 281q-23 73 -38 140l-28 123q-20 -82 -33 -134q-20 -77 -37 -129h136z" />
    <glyph glyph-name="Adieresis" unicode="&#xc4;" horiz-adv-x="582" 
d="M590 0h-150l-49 165h-204l-49 -165h-146l228 697h151zM478 795q0 -31 -23 -54t-54 -23t-53.5 22.5t-22.5 54.5t23 54.5t55 22.5q31 0 53 -22.5t22 -54.5zM266 795q0 -31 -23 -54t-54 -23t-53.5 23t-22.5 54t23 54t55 23q31 0 53 -22.5t22 -54.5zM357 281q-23 73 -38 140
l-28 123q-20 -82 -33 -134q-20 -77 -37 -129h136z" />
    <glyph glyph-name="Aring" unicode="&#xc5;" horiz-adv-x="582" 
d="M590 0h-150l-49 165h-204l-49 -165h-146l228 697h151zM400 819q0 -43 -31 -74.5t-75 -31.5q-43 0 -73.5 31t-30.5 75q0 43 31.5 74.5t74.5 31.5t73.5 -31t30.5 -75zM357 281q-23 73 -38 140l-28 123q-20 -82 -33 -134q-20 -77 -37 -129h136zM345 819q0 21 -14.5 36
t-34.5 15q-22 0 -37 -15t-15 -36t15 -36t35 -15q21 0 36 15t15 36z" />
    <glyph glyph-name="AE" unicode="&#xc6;" horiz-adv-x="849" 
d="M829 0h-409v165h-191l-93 -165h-156l414 695h422l-18 -114h-238v-161h199v-114h-197v-186h267v-120zM420 442q0 71 5 81q-1 -1 -29 -53.5t-59.5 -110.5t-42.5 -78h126v161z" />
    <glyph glyph-name="Ccedilla" unicode="&#xc7;" horiz-adv-x="564" 
d="M544 53q-79 -65 -193 -65h-17l-7 -20q36 -4 54 -25.5t18 -53.5q0 -38 -29 -63t-80 -25q-43 0 -87 24l30 63q34 -15 52 -15q10 0 17.5 6t7.5 12q0 20 -25 20q-6 0 -14.5 -3t-12.5 -3l-13 20l20 73q-84 21 -141 86q-84 94 -84 249q0 128 47 216q40 76 111 118.5t155 42.5
q51 0 99 -15t77 -40l-63 -95q-52 39 -111 39q-35 0 -67 -16t-51 -44q-39 -58 -39 -179q0 -134 29 -186q43 -78 134 -78q64 0 119 45z" />
    <glyph glyph-name="Egrave" unicode="&#xc8;" horiz-adv-x="495" 
d="M475 0h-405v695h396l-18 -114h-238v-161h199v-114h-197v-186h263v-120zM376 791l-41 -74l-224 100l58 104z" />
    <glyph glyph-name="Eacute" unicode="&#xc9;" horiz-adv-x="495" 
d="M475 0h-405v695h396l-18 -114h-238v-161h199v-114h-197v-186h263v-120zM400 817l-224 -100l-41 74l207 130z" />
    <glyph glyph-name="Ecircumflex" unicode="&#xca;" horiz-adv-x="495" 
d="M475 0h-405v695h396l-18 -114h-238v-161h199v-114h-197v-186h263v-120zM448 785l-45 -73l-139 76l-135 -76l-45 73l180 135z" />
    <glyph glyph-name="Edieresis" unicode="&#xcb;" horiz-adv-x="495" 
d="M475 0h-405v695h396l-18 -114h-238v-161h199v-114h-197v-186h263v-120zM450 795q0 -31 -23 -54t-54 -23t-53.5 22.5t-22.5 54.5t23 54.5t55 22.5q31 0 53 -22.5t22 -54.5zM239 795q0 -31 -22.5 -54t-54.5 -23q-31 0 -53.5 23t-22.5 54t23 54t55 23q31 0 53 -22.5
t22 -54.5z" />
    <glyph glyph-name="Igrave" unicode="&#xcc;" horiz-adv-x="286" 
d="M216 0h-146v695h146v-695zM260 791l-41 -74l-224 100l58 104z" />
    <glyph glyph-name="Iacute" unicode="&#xcd;" horiz-adv-x="286" 
d="M216 0h-146v695h146v-695zM295 817l-224 -100l-41 74l207 130z" />
    <glyph glyph-name="Icircumflex" unicode="&#xce;" horiz-adv-x="286" 
d="M216 0h-146v695h146v-695zM325 785l-45 -73l-139 76l-135 -76l-45 73l180 135z" />
    <glyph glyph-name="Idieresis" unicode="&#xcf;" horiz-adv-x="286" 
d="M216 0h-146v695h146v-695zM325 795q0 -31 -22.5 -54t-54.5 -23q-31 0 -53.5 22.5t-22.5 54.5t23 54.5t55 22.5q31 0 53 -22.5t22 -54.5zM114 795q0 -31 -23 -54t-54 -23t-53.5 23t-22.5 54t23 54t55 23q31 0 53 -22.5t22 -54.5z" />
    <glyph glyph-name="Eth" unicode="&#xd0;" horiz-adv-x="618" 
d="M578 345q0 -147 -70 -241q-68 -92 -169 -100q-52 -4 -100 -4h-169v306h-76v89h76v300h140q65 0 121 -4q91 -8 152 -69q95 -94 95 -277zM421 332q0 138 -35 195q-35 58 -110 58h-64v-190h107l-24 -89h-83v-192h75q69 0 101.5 53.5t32.5 164.5z" />
    <glyph glyph-name="Ntilde" unicode="&#xd1;" horiz-adv-x="623" 
d="M553 0h-146l-119 266q-77 172 -94 228q4 -51 7 -197l4 -297h-135v695h155l133 -278q51 -108 76 -197q-9 98 -11 191l-3 284h133v-695zM487 799q-45 -58 -124 -58q-31 0 -66.5 17t-64.5 17q-41 0 -68 -29l-41 75q46 58 124 58q30 0 66 -17t65 -17q41 0 68 30z" />
    <glyph glyph-name="Ograve" unicode="&#xd2;" horiz-adv-x="680" 
d="M640 351q0 -118 -40 -203.5t-115 -126.5q-58 -32 -139 -32q-79 0 -132.5 23t-93.5 75q-80 103 -80 258q0 113 41 198.5t116 126.5q63 34 144 34q139 0 219 -94.5t80 -258.5zM479 347q0 103 -18 161q-10 33 -41 60.5t-81 27.5q-35 0 -64 -16.5t-44 -44.5q-35 -66 -35 -190
q0 -181 62 -225q33 -24 83 -24q73 0 105.5 59t32.5 192zM457 791l-41 -74l-224 100l58 104z" />
    <glyph glyph-name="Oacute" unicode="&#xd3;" horiz-adv-x="680" 
d="M640 351q0 -118 -40 -203.5t-115 -126.5q-58 -32 -139 -32q-79 0 -132.5 23t-93.5 75q-80 103 -80 258q0 113 41 198.5t116 126.5q63 34 144 34q139 0 219 -94.5t80 -258.5zM479 347q0 103 -18 161q-10 33 -41 60.5t-81 27.5q-35 0 -64 -16.5t-44 -44.5q-35 -66 -35 -190
q0 -181 62 -225q33 -24 83 -24q73 0 105.5 59t32.5 192zM481 817l-224 -100l-41 74l207 130z" />
    <glyph glyph-name="Ocircumflex" unicode="&#xd4;" horiz-adv-x="680" 
d="M640 351q0 -118 -40 -203.5t-115 -126.5q-58 -32 -139 -32q-79 0 -132.5 23t-93.5 75q-80 103 -80 258q0 113 41 198.5t116 126.5q63 34 144 34q139 0 219 -94.5t80 -258.5zM479 347q0 103 -18 161q-10 33 -41 60.5t-81 27.5q-35 0 -64 -16.5t-44 -44.5q-35 -66 -35 -190
q0 -181 62 -225q33 -24 83 -24q73 0 105.5 59t32.5 192zM525 785l-45 -73l-139 76l-135 -76l-45 73l180 135z" />
    <glyph glyph-name="Otilde" unicode="&#xd5;" horiz-adv-x="668" 
d="M634 351q0 -118 -40 -203.5t-115 -126.5q-58 -32 -139 -32q-79 0 -132.5 23t-93.5 75q-80 103 -80 258q0 113 41 198.5t116 126.5q63 34 144 34q139 0 219 -94.5t80 -258.5zM473 347q0 103 -18 161q-10 33 -41 60.5t-81 27.5q-35 0 -64 -16.5t-44 -44.5q-35 -66 -35 -190
q0 -181 62 -225q33 -24 83 -24q73 0 105.5 59t32.5 192zM516 799q-45 -58 -124 -58q-31 0 -66.5 17t-64.5 17q-41 0 -68 -29l-41 75q46 58 124 58q30 0 66 -17t65 -17q41 0 68 30z" />
    <glyph glyph-name="Odieresis" unicode="&#xd6;" horiz-adv-x="680" 
d="M640 351q0 -118 -40 -203.5t-115 -126.5q-58 -32 -139 -32q-79 0 -132.5 23t-93.5 75q-80 103 -80 258q0 113 41 198.5t116 126.5q63 34 144 34q139 0 219 -94.5t80 -258.5zM479 347q0 103 -18 161q-10 33 -41 60.5t-81 27.5q-35 0 -64 -16.5t-44 -44.5q-35 -66 -35 -190
q0 -181 62 -225q33 -24 83 -24q73 0 105.5 59t32.5 192zM522 795q0 -31 -23 -54t-54 -23t-53.5 22.5t-22.5 54.5t23 54.5t55 22.5q31 0 53 -22.5t22 -54.5zM311 795q0 -31 -22.5 -54t-54.5 -23q-31 0 -53.5 23t-22.5 54t23 54t55 23q31 0 53 -22.5t22 -54.5z" />
    <glyph glyph-name="multiply" unicode="&#xd7;" horiz-adv-x="616" 
d="M546 154l-89 -89l-149 149l-149 -149l-89 89l149 149l-149 149l89 89l149 -149l149 149l89 -89l-149 -149z" />
    <glyph glyph-name="Oslash" unicode="&#xd8;" horiz-adv-x="680" 
d="M640 351q0 -118 -40 -203.5t-115 -126.5q-58 -32 -139 -32q-93 0 -155 34l-67 -111l-73 41l76 125q-87 106 -87 267q0 113 41 199t116 126q63 34 144 34q83 0 145 -35l61 99l73 -41l-68 -110q88 -94 88 -266zM423 565q-34 31 -84 31q-35 0 -64.5 -16.5t-43.5 -44.5
q-35 -66 -35 -190q0 -80 12 -134zM479 347q0 78 -11 131l-216 -355q39 -27 89 -27q73 0 105.5 59t32.5 192z" />
    <glyph glyph-name="Ugrave" unicode="&#xd9;" horiz-adv-x="636" 
d="M568 227q0 -76 -11 -109q-17 -51 -75.5 -91t-160.5 -40q-164 0 -223 93q-17 27 -23.5 54t-6.5 77v484h143v-457q0 -60 12 -83q25 -48 95 -48q46 0 73.5 21.5t32.5 59.5q2 15 2 62v445h142v-468zM433 791l-41 -74l-224 100l58 104z" />
    <glyph glyph-name="Uacute" unicode="&#xda;" horiz-adv-x="636" 
d="M568 227q0 -76 -11 -109q-17 -51 -75.5 -91t-160.5 -40q-164 0 -223 93q-17 27 -23.5 54t-6.5 77v484h143v-457q0 -60 12 -83q25 -48 95 -48q46 0 73.5 21.5t32.5 59.5q2 15 2 62v445h142v-468zM482 817l-224 -100l-41 74l207 130z" />
    <glyph glyph-name="Ucircumflex" unicode="&#xdb;" horiz-adv-x="636" 
d="M568 227q0 -76 -11 -109q-17 -51 -75.5 -91t-160.5 -40q-164 0 -223 93q-17 27 -23.5 54t-6.5 77v484h143v-457q0 -60 12 -83q25 -48 95 -48q46 0 73.5 21.5t32.5 59.5q2 15 2 62v445h142v-468zM505 785l-45 -73l-139 76l-135 -76l-45 73l180 135z" />
    <glyph glyph-name="Udieresis" unicode="&#xdc;" horiz-adv-x="636" 
d="M568 227q0 -76 -11 -109q-17 -51 -75.5 -91t-160.5 -40q-164 0 -223 93q-17 27 -23.5 54t-6.5 77v484h143v-457q0 -60 12 -83q25 -48 95 -48q46 0 73.5 21.5t32.5 59.5q2 15 2 62v445h142v-468zM499 795q0 -31 -22.5 -54t-54.5 -23q-31 0 -53.5 22.5t-22.5 54.5t23 54.5
t55 22.5q31 0 53 -22.5t22 -54.5zM289 795q0 -31 -22.5 -54t-54.5 -23q-31 0 -53.5 23t-22.5 54t23 54t55 23q31 0 53 -22.5t22 -54.5z" />
    <glyph glyph-name="Yacute" unicode="&#xdd;" horiz-adv-x="534" 
d="M559 695l-222 -409v-286h-146v286l-216 409h168l89 -190q22 -46 35 -89q19 47 37 87l90 192h165zM425 817l-224 -100l-41 74l207 130z" />
    <glyph glyph-name="Thorn" unicode="&#xde;" horiz-adv-x="566" 
d="M546 371q0 -69 -31.5 -122t-88.5 -80q-49 -23 -139 -23h-77v-146h-140v695h140v-110h43q83 0 121.5 -8t71.5 -26q100 -55 100 -180zM393 368q0 49 -25 76.5t-69 27.5h-89v-212h73q43 0 61 7t32 29q17 27 17 72z" />
    <glyph glyph-name="germandbls" unicode="&#xdf;" horiz-adv-x="602" 
d="M572 193q0 -92 -63 -149t-165 -57q-50 0 -75 12l30 92q13 -5 30 -5q46 0 71 26.5t25 75.5q0 38 -21 60q-18 20 -37 32l-45 29q-44 28 -44 81q0 44 33 70l23 18q32 25 32 64t-18 60q-18 20 -50 20q-26 0 -45 -16.5t-24 -42.5q-3 -15 -3 -70v-390q0 -60 -20 -103h-136
q20 64 20 127v281h-82v104h82v16q0 51 9 81.5t41 59.5q42 39 104 51q28 5 55 5q100 0 158.5 -44.5t58.5 -120.5q0 -81 -74 -125l-32 -19q-13 -8 -13 -18q0 -14 24 -25q80 -35 109 -67q42 -43 42 -113z" />
    <glyph glyph-name="agrave" unicode="&#xe0;" horiz-adv-x="512" 
d="M488 56l-71 -82q-52 22 -72 62q-13 -14 -31 -27q-39 -28 -103 -28q-85 0 -130.5 41.5t-45.5 118.5q0 176 246 176q16 0 30 -1v21q0 44 -12 60t-48 16q-62 0 -148 -58l-57 96q36 22 83 42q71 30 140 30q64 0 107 -23t58 -66q10 -30 9 -92l-3 -172q-1 -44 7.5 -67t40.5 -47
zM376 631l-41 -74l-224 100l58 104zM309 224h-6q-71 0 -98 -16.5t-27 -61.5q0 -30 16.5 -48.5t42.5 -18.5q38 0 70 35z" />
    <glyph glyph-name="aacute" unicode="&#xe1;" horiz-adv-x="512" 
d="M488 56l-71 -82q-52 22 -72 62q-18 -18 -31 -27q-39 -28 -103 -28q-85 0 -130.5 41.5t-45.5 118.5q0 176 246 176q19 0 30 -1v21q0 44 -12 60t-48 16q-62 0 -148 -58l-57 96q35 22 83 42q71 30 140 30q64 0 107 -23t58 -66q10 -30 9 -92l-3 -172q-1 -44 7.5 -67t40.5 -47
zM407 657l-224 -100l-41 74l207 130zM309 224h-6q-71 0 -98 -16.5t-27 -61.5q0 -30 16.5 -48.5t42.5 -18.5q38 0 70 35z" />
    <glyph glyph-name="acircumflex" unicode="&#xe2;" horiz-adv-x="512" 
d="M488 56l-71 -82q-52 22 -72 62q-18 -18 -31 -27q-39 -28 -103 -28q-85 0 -130.5 41.5t-45.5 118.5q0 176 246 176q19 0 30 -1v21q0 44 -12 60t-48 16q-62 0 -148 -58l-57 96q35 22 83 42q71 30 140 30q64 0 107 -23t58 -66q10 -30 9 -92l-3 -172q-1 -44 7.5 -67t40.5 -47
zM432 625l-45 -73l-139 76l-135 -76l-45 73l180 135zM309 224h-6q-71 0 -98 -16.5t-27 -61.5q0 -30 16.5 -48.5t42.5 -18.5q38 0 70 35z" />
    <glyph glyph-name="atilde" unicode="&#xe3;" horiz-adv-x="512" 
d="M488 56l-71 -82q-52 22 -72 62q-18 -18 -31 -27q-39 -28 -103 -28q-85 0 -130.5 41.5t-45.5 118.5q0 176 246 176q19 0 30 -1v21q0 44 -12 60t-48 16q-62 0 -148 -58l-57 96q35 22 83 42q71 30 140 30q64 0 107 -23t58 -66q10 -30 9 -92l-3 -172q-1 -44 7.5 -67t40.5 -47
zM436 639q-45 -58 -124 -58q-31 0 -66.5 17t-64.5 17q-41 0 -68 -29l-41 75q46 58 124 58q30 0 66 -17t65 -17q41 0 68 30zM309 224h-6q-71 0 -98 -16.5t-27 -61.5q0 -30 16.5 -48.5t42.5 -18.5q38 0 70 35z" />
    <glyph glyph-name="adieresis" unicode="&#xe4;" horiz-adv-x="512" 
d="M488 56l-71 -82q-52 22 -72 62q-21 -20 -31 -27q-39 -28 -103 -28q-85 0 -130.5 41.5t-45.5 118.5q0 176 246 176q16 0 30 -1v21q0 44 -12 60t-48 16q-62 0 -148 -58l-57 96q34 21 83 42q75 30 140 30q64 0 107 -23t58 -66q10 -30 9 -92l-3 -172q-1 -44 7.5 -67t40.5 -47
zM434 635q0 -33 -23.5 -56.5t-56.5 -23.5t-56 23.5t-23 56.5t23.5 56.5t57.5 23.5q32 0 55 -23.5t23 -56.5zM223 635q0 -33 -23.5 -56.5t-56.5 -23.5q-32 0 -55.5 23.5t-23.5 56.5t24 56.5t57 23.5q32 0 55 -23.5t23 -56.5zM309 224h-6q-71 0 -98 -16.5t-27 -61.5
q0 -30 16.5 -48.5t42.5 -18.5q38 0 70 35z" />
    <glyph glyph-name="aring" unicode="&#xe5;" horiz-adv-x="512" 
d="M488 56l-71 -82q-52 22 -72 62q-18 -18 -31 -27q-39 -28 -103 -28q-85 0 -130.5 41.5t-45.5 118.5q0 176 246 176q19 0 30 -1v21q0 44 -12 60t-48 16q-62 0 -148 -58l-57 96q35 22 83 42q71 30 140 30q64 0 107 -23t58 -66q10 -30 9 -92l-3 -172q-1 -44 7.5 -67t40.5 -47
zM361 659q0 -43 -31.5 -74.5t-74.5 -31.5t-73.5 31t-30.5 75q0 43 31.5 74.5t74.5 31.5t73.5 -31t30.5 -75zM309 224h-6q-71 0 -98 -16.5t-27 -61.5q0 -30 16.5 -48.5t42.5 -18.5q38 0 70 35zM306 659q0 21 -14.5 36t-34.5 15q-22 0 -37 -15t-15 -36t15 -36t35 -15
q21 0 36 15t15 36z" />
    <glyph glyph-name="ae" unicode="&#xe6;" horiz-adv-x="762" 
d="M737 213h-296v-4q0 -59 28 -91.5t80 -32.5q69 0 130 51l52 -80q-87 -71 -193 -71q-53 0 -84.5 10.5t-68.5 39.5q-3 2 -6 5t-6.5 7t-5.5 6q-19 -27 -53 -45q-49 -27 -103 -27q-85 0 -130.5 41.5t-45.5 118.5q0 176 246 176q5 0 14 -0.5t16 -0.5v21q0 44 -12 60t-48 16
q-62 0 -148 -58l-57 96q31 21 83 42q71 30 140 30q71 0 130 -47q50 46 122 46q96 0 148 -54q68 -69 68 -224v-31zM309 224h-6q-71 0 -98 -16.5t-27 -61.5q0 -30 16.5 -48.5t42.5 -18.5q38 0 71 36zM598 311v6q0 52 -16 77q-20 30 -59 30q-38 0 -59 -29t-21 -82v-2h155z" />
    <glyph glyph-name="ccedilla" unicode="&#xe7;" horiz-adv-x="455" 
d="M435 58q-24 -24 -47 -38q-54 -32 -117 -32l-7 -20q36 -4 54 -25.5t18 -53.5q0 -38 -29 -63t-80 -25q-43 0 -87 24l30 63q34 -15 52 -15q10 0 17.5 6t7.5 12q0 20 -25 20q-6 0 -14.5 -3t-12.5 -3l-13 20l19 70q-77 19 -119 85.5t-42 171.5q0 165 105 237q56 38 127 38
q51 0 99 -23q21 -11 50 -36l-65 -88q-43 40 -81 40q-45 0 -66 -41t-21 -131q0 -97 26 -129q23 -29 60 -29q44 0 92 42l8 7z" />
    <glyph glyph-name="egrave" unicode="&#xe8;" horiz-adv-x="506" 
d="M481 214h-296v-4q0 -59 28 -91.5t80 -32.5q69 0 130 51l52 -80q-87 -71 -193 -71q-110 0 -176 72t-66 193q0 132 64 203q62 69 161 69q96 0 148 -54q68 -69 68 -224v-31zM360 631l-41 -74l-224 100l58 104zM342 312v6q0 52 -16 77q-20 30 -59 30q-38 0 -59 -29t-21 -82
v-2h155z" />
    <glyph glyph-name="eacute" unicode="&#xe9;" horiz-adv-x="506" 
d="M481 214h-296v-4q0 -59 28 -91.5t80 -32.5q69 0 130 51l52 -80q-87 -71 -193 -71q-110 0 -176 72t-66 193q0 132 64 203q62 69 161 69q96 0 148 -54q68 -69 68 -224v-31zM411 657l-224 -100l-41 74l207 130zM342 312v6q0 52 -16 77q-20 30 -59 30q-38 0 -59 -29t-21 -82
v-2h155z" />
    <glyph glyph-name="ecircumflex" unicode="&#xea;" horiz-adv-x="506" 
d="M481 214h-296v-4q0 -59 28 -91.5t80 -32.5q69 0 130 51l52 -80q-87 -71 -193 -71q-110 0 -176 72t-66 193q0 132 64 203q62 69 161 69q96 0 148 -54q68 -69 68 -224v-31zM448 625l-45 -73l-139 76l-135 -76l-45 73l180 135zM342 312v6q0 52 -16 77q-20 30 -59 30
q-38 0 -59 -29t-21 -82v-2h155z" />
    <glyph glyph-name="edieresis" unicode="&#xeb;" horiz-adv-x="506" 
d="M481 214h-296v-4q0 -59 28 -91.5t80 -32.5q69 0 130 51l52 -80q-87 -71 -193 -71q-110 0 -176 72t-66 193q0 132 64 203q62 69 161 69q96 0 148 -54q68 -69 68 -224v-31zM448 635q0 -31 -23 -54t-54 -23t-53.5 22.5t-22.5 54.5t23 54.5t55 22.5q31 0 53 -22.5t22 -54.5z
M237 635q0 -31 -22.5 -54t-54.5 -23q-31 0 -53.5 23t-22.5 54t23 54t55 23q31 0 53 -22.5t22 -54.5zM342 312v6q0 52 -16 77q-20 30 -59 30q-38 0 -59 -29t-21 -82v-2h155z" />
    <glyph glyph-name="igrave" unicode="&#xec;" horiz-adv-x="274" 
d="M204 0h-134v503l134 21v-524zM245 631l-41 -74l-224 100l58 104z" />
    <glyph glyph-name="iacute" unicode="&#xed;" horiz-adv-x="274" 
d="M204 0h-134v503l134 21v-524zM298 657l-224 -100l-41 74l207 130z" />
    <glyph glyph-name="icircumflex" unicode="&#xee;" horiz-adv-x="274" 
d="M204 0h-134v503l134 21v-524zM319 625l-45 -73l-139 76l-135 -76l-45 73l180 135z" />
    <glyph glyph-name="idieresis" unicode="&#xef;" horiz-adv-x="274" 
d="M204 0h-134v503l134 21v-524zM319 635q0 -31 -22.5 -54t-54.5 -23q-31 0 -53.5 22.5t-22.5 54.5t23 54.5t55 22.5q31 0 53 -22.5t22 -54.5zM108 635q0 -31 -23 -54t-54 -23t-53.5 23t-22.5 54t23 54t55 23q31 0 53 -22.5t22 -54.5z" />
    <glyph glyph-name="eth" unicode="&#xf0;" horiz-adv-x="526" 
d="M486 241q0 -121 -62.5 -187t-162.5 -66q-97 0 -159 61t-62 165q0 95 59.5 152t152.5 57q7 0 52 -3q-28 39 -66 72q-8 7 -26 21l-41 -47l-81 36l48 54q-64 29 -142 38l80 95q73 -8 142 -41l31 36l81 -36l-37 -43q47 -32 79 -70q114 -134 114 -294zM353 233q0 14 -6 65
q-30 19 -89 19q-39 0 -61 -27t-22 -78q0 -52 24.5 -83.5t67.5 -31.5t64.5 37t21.5 99z" />
    <glyph glyph-name="ntilde" unicode="&#xf1;" horiz-adv-x="544" 
d="M474 0h-132v333q0 44 -9.5 59.5t-35.5 15.5q-42 0 -93 -46v-362h-134v371q0 69 -18 120l119 34q19 -33 19 -64q38 26 59 38q42 22 92 22q43 0 77 -20.5t46 -53.5q10 -27 10 -73v-374zM452 639q-45 -58 -124 -58q-31 0 -66.5 17t-64.5 17q-41 0 -68 -29l-41 75
q46 58 124 58q30 0 66 -17t65 -17q41 0 68 30z" />
    <glyph glyph-name="ograve" unicode="&#xf2;" horiz-adv-x="533" 
d="M498 258q0 -125 -64 -198q-63 -71 -169 -71q-104 0 -167 72t-63 193t63 194.5t167 73.5q109 0 174 -77q59 -69 59 -187zM352 259q0 103 -27 137q-21 27 -58 27q-51 0 -69 -52q-14 -42 -14 -114q0 -89 17 -129q9 -20 28 -31t40 -11q44 0 63.5 41t19.5 132zM358 631
l-41 -74l-224 100l58 104z" />
    <glyph glyph-name="oacute" unicode="&#xf3;" horiz-adv-x="533" 
d="M498 258q0 -125 -64 -198q-63 -71 -169 -71q-104 0 -167 72t-63 193t63 194.5t167 73.5q109 0 174 -77q59 -69 59 -187zM352 259q0 103 -27 137q-21 27 -58 27q-51 0 -69 -52q-14 -42 -14 -114q0 -89 17 -129q9 -20 28 -31t40 -11q44 0 63.5 41t19.5 132zM412 657
l-224 -100l-41 74l207 130z" />
    <glyph glyph-name="ocircumflex" unicode="&#xf4;" horiz-adv-x="533" 
d="M498 258q0 -125 -64 -198q-63 -71 -169 -71q-104 0 -167 72t-63 193t63 194.5t167 73.5q109 0 174 -77q59 -69 59 -187zM352 259q0 103 -27 137q-21 27 -58 27q-51 0 -69 -52q-14 -42 -14 -114q0 -89 17 -129q9 -20 28 -31t40 -11q44 0 63.5 41t19.5 132zM449 625
l-45 -73l-139 76l-135 -76l-45 73l180 135z" />
    <glyph glyph-name="otilde" unicode="&#xf5;" horiz-adv-x="533" 
d="M498 258q0 -125 -64 -198q-63 -71 -169 -71q-104 0 -167 72t-63 193t63 194.5t167 73.5q109 0 174 -77q59 -69 59 -187zM352 259q0 103 -27 137q-21 27 -58 27q-51 0 -69 -52q-14 -42 -14 -114q0 -89 17 -129q9 -20 28 -31t40 -11q44 0 63.5 41t19.5 132zM447 639
q-45 -58 -124 -58q-31 0 -66.5 17t-64.5 17q-41 0 -68 -29l-41 75q46 58 124 58q30 0 66 -17t65 -17q41 0 68 30z" />
    <glyph glyph-name="odieresis" unicode="&#xf6;" horiz-adv-x="533" 
d="M498 258q0 -125 -64 -198q-63 -71 -169 -71q-104 0 -167 72t-63 193t63 194.5t167 73.5q109 0 174 -77q59 -69 59 -187zM352 259q0 103 -27 137q-21 27 -58 27q-51 0 -69 -52q-14 -42 -14 -114q0 -89 17 -129q9 -20 28 -31t40 -11q44 0 63.5 41t19.5 132zM448 635
q0 -31 -23 -54t-54 -23t-53.5 22.5t-22.5 54.5t23 54.5t55 22.5q31 0 53 -22.5t22 -54.5zM237 635q0 -31 -22.5 -54t-54.5 -23q-31 0 -53.5 23t-22.5 54t23 54t55 23q31 0 53 -22.5t22 -54.5z" />
    <glyph glyph-name="divide" unicode="&#xf7;" horiz-adv-x="585" 
d="M545 214h-505v105h505v-105zM377 68q0 -35 -25.5 -59.5t-61.5 -24.5q-35 0 -60.5 24.5t-25.5 59.5q0 37 25.5 63.5t61.5 25.5t61 -26.5t25 -62.5zM378 467q0 -36 -25.5 -61t-61.5 -25q-35 0 -60 25t-25 60q0 36 25 62t60 26q36 0 61.5 -25.5t25.5 -61.5z" />
    <glyph glyph-name="oslash" unicode="&#xf8;" horiz-adv-x="533" 
d="M498 258q0 -125 -64 -198q-63 -71 -169 -71q-57 0 -103 23l-58 -96l-62 35l62 103q-69 74 -69 200q0 121 63 194.5t167 73.5q61 0 109 -24l59 96l62 -35l-65 -105q68 -67 68 -196zM352 259q0 42 -3 60l-131 -215q22 -18 51 -18q44 0 63.5 41t19.5 132zM317 404
q-21 19 -50 19q-51 0 -69 -52q-14 -42 -14 -114q0 -10 3 -67z" />
    <glyph glyph-name="ugrave" unicode="&#xf9;" horiz-adv-x="536" 
d="M497 40l-95 -54q-27 19 -40 50q-51 -49 -135 -49q-54 0 -96 23t-55 60q-11 32 -11 102v328l132 25v-329q0 -62 11 -84q12 -24 47 -24q25 0 50 15t33 34v360l128 27v-391q0 -56 31 -93zM390 631l-41 -74l-224 100l58 104z" />
    <glyph glyph-name="uacute" unicode="&#xfa;" horiz-adv-x="536" 
d="M497 40l-95 -54q-27 19 -40 50q-51 -49 -135 -49q-54 0 -96 23t-55 60q-11 32 -11 102v328l132 25v-329q0 -62 11 -84q12 -24 47 -24q25 0 50 15t33 34v360l128 27v-391q0 -56 31 -93zM425 657l-224 -100l-41 74l207 130z" />
    <glyph glyph-name="ucircumflex" unicode="&#xfb;" horiz-adv-x="536" 
d="M497 40l-95 -54q-27 19 -40 50q-51 -49 -135 -49q-54 0 -96 23t-55 60q-11 32 -11 102v328l132 25v-329q0 -62 11 -84q12 -24 47 -24q25 0 50 15t33 34v360l128 27v-391q0 -56 31 -93zM451 625l-45 -73l-139 76l-135 -76l-45 73l180 135z" />
    <glyph glyph-name="udieresis" unicode="&#xfc;" horiz-adv-x="536" 
d="M497 40l-95 -54q-27 19 -40 50q-51 -49 -135 -49q-54 0 -96 23t-55 60q-11 32 -11 102v328l132 25v-329q0 -62 11 -84q12 -24 47 -24q25 0 50 15t33 34v360l128 27v-391q0 -56 31 -93zM450 635q0 -31 -23 -54t-54 -23t-53.5 22.5t-22.5 54.5t23 54.5t55 22.5
q31 0 53 -22.5t22 -54.5zM234 635q0 -31 -23 -54t-54 -23t-53.5 23t-22.5 54t23 54t55 23q31 0 53 -22.5t22 -54.5z" />
    <glyph glyph-name="yacute" unicode="&#xfd;" horiz-adv-x="497" 
d="M502 512l-186 -520q-26 -73 -48 -110.5t-50 -58.5q-51 -37 -124 -47l-46 88q57 16 83 34q21 15 38 42q14 23 29 60h-34q-5 16 -17.5 52.5t-20.5 60.5t-10 31l-121 360l137 16l89 -299l27 -106q10 57 16 82q9 37 20 71l77 244h141zM416 657l-224 -100l-41 74l207 130z" />
    <glyph glyph-name="thorn" unicode="&#xfe;" horiz-adv-x="548" 
d="M508 265q0 -160 -95 -235q-50 -40 -112 -40q-67 0 -106 39v-215l-129 -34v803q0 89 -9 126l137 32q5 -44 5 -91v-121q0 -33 -3 -45q38 41 109 41q94 0 148.5 -70t54.5 -190zM356 262q0 61 -6 87q-15 65 -73 65q-39 0 -76 -41v-236q37 -33 75 -33q49 0 65 40q15 35 15 118
z" />
    <glyph glyph-name="ydieresis" unicode="&#xff;" horiz-adv-x="497" 
d="M502 512l-186 -520q-26 -73 -48 -110.5t-50 -58.5q-51 -37 -124 -47l-46 88q57 16 83 34q21 15 38 42q14 23 29 60h-34q-5 16 -17.5 52.5t-20.5 60.5t-10 31l-121 360l137 16l89 -299q3 -13 9.5 -38t11.5 -45t6 -23q0 15 16 82q9 37 20 71l77 244h141zM443 635
q0 -31 -22.5 -54t-54.5 -23q-31 0 -53.5 22.5t-22.5 54.5t23 54.5t55 22.5q31 0 53 -22.5t22 -54.5zM232 635q0 -31 -23 -54t-54 -23t-53.5 23t-22.5 54t23 54t55 23q31 0 53 -22.5t22 -54.5z" />
    <glyph glyph-name="dotlessi" unicode="&#x131;" horiz-adv-x="274" 
d="M204 0h-134v503l134 21v-524z" />
    <glyph glyph-name="Lslash" unicode="&#x141;" horiz-adv-x="467" 
d="M462 116l-25 -116h-367v294l-56 -18v92l56 18v309h143v-262l148 48v-92l-148 -48v-225h249z" />
    <glyph glyph-name="lslash" unicode="&#x142;" horiz-adv-x="281" 
d="M281 2q-36 -14 -80 -14q-43 0 -75 19t-44 51q-12 31 -12 115v113l-40 -13v92l40 13v177q0 90 -7 154l137 31q7 -39 7 -133v-182l54 18v-92l-54 -18v-125q0 -98 9 -114q8 -14 27 -14q8 0 15 2z" />
    <glyph glyph-name="OE" unicode="&#x152;" horiz-adv-x="836" 
d="M816 0h-408q-118 0 -171.5 12.5t-101.5 59.5q-95 92 -95 277q0 143 70 237q57 78 169 100q47 9 127 9h397l-18 -114h-237v-161h198v-114h-198v-186h268v-120zM416 119v447q-38 10 -75 10q-69 0 -101.5 -52t-32.5 -162q0 -137 35 -195t110 -58q15 0 31 2.5t25 4.5z" />
    <glyph glyph-name="oe" unicode="&#x153;" horiz-adv-x="802" 
d="M777 213h-296v-4q0 -59 28 -91.5t80 -32.5q69 0 130 51l52 -80q-87 -71 -193 -71q-98 0 -161 57q-59 -53 -152 -53q-104 0 -167 72t-63 193t63 194.5t167 73.5q91 0 150 -53q57 53 146 53q96 0 148 -54q68 -69 68 -224v-31zM352 259q0 103 -27 137q-21 27 -58 27
q-51 0 -69 -52q-14 -42 -14 -114q0 -89 17 -129q9 -20 28 -31t40 -11q44 0 63.5 41t19.5 132zM638 311q0 58 -16 83q-19 30 -59 30q-38 0 -59 -29t-21 -84h155z" />
    <glyph glyph-name="Scaron" unicode="&#x160;" horiz-adv-x="584" 
d="M554 219q0 -106 -78.5 -170t-208.5 -64q-127 0 -237 63l52 109q107 -56 191 -56q122 0 122 95q0 65 -91 90l-77 21q-101 28 -137 88q-29 47 -29 106q0 95 69.5 155t179.5 60q135 0 232 -70l-66 -100q-88 53 -162 53q-43 0 -70 -22.5t-27 -57.5q0 -27 17 -42.5t60 -27.5
l84 -23q85 -23 130.5 -76.5t45.5 -130.5zM481 869l-180 -135l-184 135l45 73l139 -76l135 76z" />
    <glyph glyph-name="scaron" unicode="&#x161;" horiz-adv-x="481" 
d="M451 162q0 -80 -60.5 -129t-158.5 -49q-94 0 -207 59l48 98q95 -58 170 -58q29 0 48.5 16.5t19.5 41.5q0 26 -19 40.5t-60 22.5l-60 11q-25 4 -52.5 19.5t-41.5 32.5q-29 35 -29 92q0 75 54.5 121t143.5 46q85 0 183 -48l-44 -90q-73 37 -126 37q-29 0 -47 -13.5
t-18 -36.5q0 -20 14.5 -31.5t49.5 -20.5l62 -16q71 -18 102 -58q28 -35 28 -87zM417 689l-180 -135l-184 135l45 73l139 -76l135 76z" />
    <glyph glyph-name="Ydieresis" unicode="&#x178;" horiz-adv-x="534" 
d="M559 695l-222 -409v-286h-146v286l-216 409h168l89 -190q22 -46 35 -89q19 47 37 87l90 192h165zM446 795q0 -31 -23 -54t-54 -23t-53.5 22.5t-22.5 54.5t23 54.5t55 22.5q31 0 53 -22.5t22 -54.5zM235 795q0 -31 -22.5 -54t-54.5 -23q-31 0 -53.5 23t-22.5 54t23 54
t55 23q31 0 53 -22.5t22 -54.5z" />
    <glyph glyph-name="Zcaron" unicode="&#x17d;" horiz-adv-x="530" 
d="M500 114l-36 -114h-434v98l256 423l43 63q-29 -5 -71 -5h-214l31 116h416v-101l-258 -435l-36 -49q41 4 69 4h234zM445 869l-180 -135l-184 135l45 73l139 -76l135 76z" />
    <glyph glyph-name="zcaron" unicode="&#x17e;" horiz-adv-x="469" 
d="M439 93l-32 -93h-377v83l241 335h-221v94h380v-92l-226 -327h235zM420 689l-180 -135l-184 135l45 73l139 -76l135 76z" />
    <glyph glyph-name="florin" unicode="&#x192;" horiz-adv-x="312" 
d="M380 709l-41 -83q-32 17 -51 17q-24 0 -39.5 -15.5t-17.5 -42.5l-5 -73h118l-32 -94h-90l-27 -384q-3 -43 -6.5 -71.5t-13.5 -53t-16.5 -38t-27 -31.5t-34 -27.5t-47.5 -32.5l-62 91q50 39 65 62.5t19 76.5l27 408h-43v94h52q0 1 3 70q5 76 46.5 117.5t114.5 41.5
q58 0 108 -32z" />
    <glyph glyph-name="circumflex" unicode="&#x2c6;" horiz-adv-x="404" 
d="M384 625l-45 -73l-139 76l-135 -76l-45 73l180 135z" />
    <glyph glyph-name="caron" unicode="&#x2c7;" horiz-adv-x="404" 
d="M384 689l-180 -135l-184 135l45 73l139 -76l135 76z" />
    <glyph glyph-name="breve" unicode="&#x2d8;" horiz-adv-x="381" 
d="M361 693q-21 -31 -71 -73t-99 -42q-35 0 -76 27t-61.5 49t-33.5 39l36 44q69 -65 139 -65q55 0 135 65z" />
    <glyph glyph-name="dotaccent" unicode="&#x2d9;" horiz-adv-x="205" 
d="M185 653q0 -35 -24.5 -59t-58.5 -24t-58 24.5t-24 58.5t24.5 58.5t59.5 24.5q34 0 57.5 -24t23.5 -59z" />
    <glyph glyph-name="ring" unicode="&#x2da;" horiz-adv-x="250" 
d="M230 659q0 -43 -31 -74.5t-75 -31.5q-43 0 -73.5 31t-30.5 75q0 43 31.5 74.5t74.5 31.5t73.5 -31t30.5 -75zM175 659q0 21 -14.5 36t-34.5 15q-22 0 -37 -15t-15 -36t15 -36t35 -15q21 0 36 15t15 36z" />
    <glyph glyph-name="ogonek" unicode="&#x2db;" horiz-adv-x="296" 
d="M246 -175q-44 -24 -87 -24q-51 0 -80 25t-29 63q0 33 16 65t30.5 47.5t26.5 24.5l71 -40q-17 -16 -25.5 -25.5t-18.5 -27t-10 -34.5q0 -11 7 -18.5t17 -7.5q18 0 52 15z" />
    <glyph glyph-name="tilde" unicode="&#x2dc;" horiz-adv-x="404" 
d="M384 639q-45 -58 -124 -58q-31 0 -66.5 17t-64.5 17q-41 0 -68 -29l-41 75q46 58 124 58q30 0 66 -17t65 -17q41 0 68 30z" />
    <glyph glyph-name="hungarumlaut" unicode="&#x2dd;" horiz-adv-x="461" 
d="M214 741l-116 -217l-78 34l83 229zM441 723l-147 -196l-72 46l117 213z" />
    <glyph glyph-name="endash" unicode="&#x2013;" horiz-adv-x="567" 
d="M527 223h-487v103h487v-103z" />
    <glyph glyph-name="emdash" unicode="&#x2014;" horiz-adv-x="793" 
d="M753 223h-713v103h713v-103z" />
    <glyph glyph-name="quoteleft" unicode="&#x2018;" horiz-adv-x="259" 
d="M229 661q-33 -8 -52.5 -23t-19.5 -34q0 -18 26 -32q39 -22 39 -70q0 -36 -25.5 -61t-61.5 -25q-43 0 -71.5 34t-28.5 86q0 65 39 115t102 66z" />
    <glyph glyph-name="quoteright" unicode="&#x2019;" horiz-adv-x="259" 
d="M224 591q0 -65 -39 -114.5t-102 -65.5l-53 55q33 8 52.5 23.5t19.5 33.5q0 16 -26 32q-39 23 -39 70q0 36 25 61t62 25q44 0 72 -34t28 -86z" />
    <glyph glyph-name="quotesinglbase" unicode="&#x201a;" horiz-adv-x="259" 
d="M224 36q0 -65 -39 -115t-102 -66l-53 56q33 7 52.5 23t19.5 34q0 16 -26 32q-39 23 -39 70q0 36 25.5 61t61.5 25q44 0 72 -34t28 -86z" />
    <glyph glyph-name="quotedblleft" unicode="&#x201c;" horiz-adv-x="484" 
d="M229 662q-33 -8 -52.5 -23t-19.5 -34q0 -16 26 -32q39 -23 39 -70q0 -36 -25.5 -61t-62.5 -25q-43 0 -71 34t-28 86q0 65 39 115t102 66zM454 662q-32 -8 -51.5 -23t-19.5 -34q0 -16 26 -32q39 -24 39 -70q0 -36 -25.5 -61t-62.5 -25q-43 0 -71 33.5t-28 86.5
q0 65 39 115t101 66z" />
    <glyph glyph-name="quotedblright" unicode="&#x201d;" horiz-adv-x="484" 
d="M224 591q0 -65 -39 -114.5t-102 -65.5l-53 55q33 8 52.5 23.5t19.5 33.5q0 16 -26 32q-39 23 -39 70q0 36 25 61t62 25q44 0 72 -34t28 -86zM449 591q0 -65 -38.5 -114.5t-101.5 -65.5l-53 55q32 8 51.5 23.5t19.5 33.5q0 17 -25 32q-39 23 -39 70q0 36 25 61t62 25
q43 0 71 -33.5t28 -86.5z" />
    <glyph glyph-name="quotedblbase" unicode="&#x201e;" horiz-adv-x="485" 
d="M450 36q0 -65 -39 -115t-102 -66l-53 56q32 7 51.5 23t19.5 34q0 17 -25 32q-39 23 -39 70q0 36 25 61t62 25q44 0 72 -34t28 -86zM224 36q0 -65 -39 -115t-102 -66l-53 56q33 7 52.5 23t19.5 34q0 16 -26 32q-39 23 -39 70q0 36 25.5 61t61.5 25q44 0 72 -34t28 -86z
" />
    <glyph glyph-name="dagger" unicode="&#x2020;" horiz-adv-x="484" 
d="M464 545l-23 -121h-139v-424h-132v424h-150v121h150v150h132v-150h162z" />
    <glyph glyph-name="daggerdbl" unicode="&#x2021;" horiz-adv-x="496" 
d="M476 545l-23 -121h-139v-153h150v-121h-150v-150h-132v150h-162l23 121h139v153h-150v121h150v150h132v-150h162z" />
    <glyph glyph-name="bullet" unicode="&#x2022;" horiz-adv-x="474" 
d="M414 354q0 -74 -52 -125.5t-125 -51.5t-125 51.5t-52 125.5t52 125.5t125 51.5t125 -51.5t52 -125.5z" />
    <glyph glyph-name="ellipsis" unicode="&#x2026;" horiz-adv-x="776" 
d="M726 73q0 -37 -26 -63t-62 -26q-37 0 -62.5 26t-25.5 63q0 36 25.5 61.5t61.5 25.5q37 0 63 -25.5t26 -61.5zM226 73q0 -37 -26 -63t-62 -26q-37 0 -62.5 26t-25.5 63q0 36 25.5 61.5t61.5 25.5q37 0 63 -25.5t26 -61.5zM476 73q0 -37 -26 -63t-62 -26q-37 0 -62.5 26
t-25.5 63q0 36 25.5 61.5t61.5 25.5q37 0 63 -25.5t26 -61.5z" />
    <glyph glyph-name="perthousand" unicode="&#x2030;" horiz-adv-x="1210" 
d="M810 164q0 -82 -47 -128q-48 -46 -125 -46t-123 46.5t-46 125.5q0 78 46.5 126t122.5 48q79 0 127 -48q45 -45 45 -124zM1180 164q0 -82 -47 -128q-48 -46 -125 -46t-123 46.5t-46 125.5q0 78 46.5 126t122.5 48q79 0 128 -49q44 -44 44 -123zM371 533q0 -82 -47 -128
q-48 -46 -125 -46t-123 46.5t-46 125.5q0 78 46.5 126t122.5 48q78 0 125 -47t47 -125zM650 695l-364 -695h-95l364 695h95zM260 535q0 60 -20 80q-16 16 -42 16q-37 0 -50 -30q-9 -22 -9 -67q0 -58 11 -75q16 -25 50 -25q32 0 46 24t14 77zM1069 166q0 60 -20 80
q-16 16 -42 16q-37 0 -50 -30q-9 -22 -9 -67q0 -58 11 -75q16 -25 50 -25q32 0 46 24t14 77zM699 166q0 60 -20 80q-16 16 -42 16q-37 0 -50 -30q-9 -22 -9 -67q0 -58 11 -75q16 -25 50 -25q32 0 46 24t14 77z" />
    <glyph glyph-name="guilsinglleft" unicode="&#x2039;" horiz-adv-x="300" 
d="M275 76l-91 -61l-159 234l159 234l91 -61l-116 -173z" />
    <glyph glyph-name="guilsinglright" unicode="&#x203a;" horiz-adv-x="300" 
d="M275 249l-159 -234l-91 61l116 173l-116 173l91 61z" />
    <glyph glyph-name="fraction" unicode="&#x2044;" horiz-adv-x="256" 
d="M446 764l-528 -918h-108l528 918h108z" />
    <glyph glyph-name="Euro" unicode="&#x20ac;" horiz-adv-x="624" 
d="M604 33q-39 -25 -73 -35t-90 -10q-143 0 -227 96q-49 55 -70 132h-114v98h100v19q0 40 2 58h-102v98h122q11 34 25 60q40 76 111 118.5t155 42.5q86 0 146 -35l-33 -115q-52 39 -111 39q-35 0 -67 -16t-51 -44q-13 -18 -23 -50h193v-98h-208q0 -5 -0.5 -15t-0.5 -16
q0 -32 1 -46h208v-98h-196q6 -26 16 -42q43 -78 134 -78q63 0 119 45z" />
    <glyph glyph-name="trademark" unicode="&#x2122;" horiz-adv-x="1020" 
d="M960 296h-108v268h-2l-98 -268h-70l-98 268h-2v-268h-108v412h145l98 -268l98 268h145v-412zM386 612h-119v-316h-108v316h-119v96h346v-96z" />
    <glyph glyph-name="minus" unicode="&#x2212;" horiz-adv-x="567" 
d="M527 223h-487v103h487v-103z" />
    <glyph glyph-name="fi" unicode="&#xfb01;" horiz-adv-x="576" 
d="M506 0h-134v418h-171v-418h-131v418h-46v94h49q0 11 -2.5 34.5t-2.5 35.5q0 76 43 117.5t122 41.5q69 0 111 -24l-43 -83q-20 9 -45 9q-26 0 -41 -15.5t-15 -42.5v-73h306v-512zM522 653q0 -35 -24 -59t-59 -24q-34 0 -58 24.5t-24 58.5t24.5 58.5t59.5 24.5
q34 0 57.5 -24t23.5 -59z" />
    <glyph glyph-name="fl" unicode="&#xfb02;" horiz-adv-x="580" 
d="M341 717l-43 -83q-20 9 -45 9q-26 0 -41 -15.5t-15 -42.5v-73h123l-34 -94h-85v-418h-131v418h-46v94h46q0 11 -2.5 34.5t-2.5 35.5q0 76 43 117.5t122 41.5q69 0 111 -24zM580 2q-36 -14 -80 -14q-43 0 -75 19t-44 51q-12 31 -12 115v382q0 90 -7 154l137 31
q7 -39 7 -133v-399q0 -98 9 -114q8 -14 27 -14q10 0 15 2z" />
    </font>
</defs>
</svg>
